<?xml version="1.0" encoding="utf-8" standalone="no"?>
<!DOCTYPE svg PUBLIC "-//W3C//DTD SVG 1.1//EN"
  "http://www.w3.org/Graphics/SVG/1.1/DTD/svg11.dtd">
<svg height="424.185pt" version="1.1" viewBox="0 0 712.329062 424.185" width="712.329062pt" xmlns="http://www.w3.org/2000/svg" xmlns:xlink="http://www.w3.org/1999/xlink">
 <metadata>
  <rdf:RDF xmlns:cc="http://creativecommons.org/ns#" xmlns:dc="http://purl.org/dc/elements/1.1/" xmlns:rdf="http://www.w3.org/1999/02/22-rdf-syntax-ns#">
   <cc:Work>
    <dc:type rdf:resource="http://purl.org/dc/dcmitype/StillImage"/>
    <dc:date>2025-04-02T23:38:40.011197</dc:date>
    <dc:format>image/svg+xml</dc:format>
    <dc:creator>
     <cc:Agent>
      <dc:title>Matplotlib v3.4.3, https://matplotlib.org/</dc:title>
     </cc:Agent>
    </dc:creator>
   </cc:Work>
  </rdf:RDF>
 </metadata>
 <defs>
  <style type="text/css">*{stroke-linecap:butt;stroke-linejoin:round;}</style>
 </defs>
 <g id="figure_1">
  <g id="patch_1">
   <path d="M 0 424.185 
L 712.329062 424.185 
L 712.329062 0 
L 0 0 
z
" style="fill:none;"/>
  </g>
  <g id="axes_1">
   <g id="patch_2">
    <path d="M 52.854063 382.7575 
L 705.129063 382.7575 
L 705.129063 39.3575 
L 52.854063 39.3575 
z
" style="fill:#ffffff;"/>
   </g>
   <g id="PathCollection_1">
    <defs>
     <path d="M 0 5 
C 1.326016 5 2.597899 4.473168 3.535534 3.535534 
C 4.473168 2.597899 5 1.326016 5 -0 
C 5 -1.326016 4.473168 -2.597899 3.535534 -3.535534 
C 2.597899 -4.473168 1.326016 -5 0 -5 
C -1.326016 -5 -2.597899 -4.473168 -3.535534 -3.535534 
C -4.473168 -2.597899 -5 -1.326016 -5 0 
C -5 1.326016 -4.473168 2.597899 -3.535534 3.535534 
C -2.597899 4.473168 -1.326016 5 0 5 
z
" id="C0_0_52028350d8"/>
    </defs>
    <g clip-path="url(#p132d557168)">
     <use style="fill:#01c19e;stroke:#ffffff;stroke-width:0.8;" x="675.480199" xlink:href="#C0_0_52028350d8" y="304.62985"/>
    </g>
    <g clip-path="url(#p132d557168)">
     <use style="fill:#6b8ae0;stroke:#ffffff;stroke-width:0.8;" x="675.480199" xlink:href="#C0_0_52028350d8" y="278.514753"/>
    </g>
    <g clip-path="url(#p132d557168)">
     <use style="fill:#ff756d;stroke:#ffffff;stroke-width:0.8;" x="675.480199" xlink:href="#C0_0_52028350d8" y="275.59802"/>
    </g>
    <g clip-path="url(#p132d557168)">
     <use style="fill:#01c19e;stroke:#ffffff;stroke-width:0.8;" x="163.363463" xlink:href="#C0_0_52028350d8" y="287.667606"/>
    </g>
    <g clip-path="url(#p132d557168)">
     <use style="fill:#6b8ae0;stroke:#ffffff;stroke-width:0.8;" x="163.363463" xlink:href="#C0_0_52028350d8" y="275.586804"/>
    </g>
    <g clip-path="url(#p132d557168)">
     <use style="fill:#ff756d;stroke:#ffffff;stroke-width:0.8;" x="163.363463" xlink:href="#C0_0_52028350d8" y="265.932846"/>
    </g>
    <g clip-path="url(#p132d557168)">
     <use style="fill:#01c19e;stroke:#ffffff;stroke-width:0.8;" x="82.502926" xlink:href="#C0_0_52028350d8" y="273.667364"/>
    </g>
    <g clip-path="url(#p132d557168)">
     <use style="fill:#6b8ae0;stroke:#ffffff;stroke-width:0.8;" x="82.502926" xlink:href="#C0_0_52028350d8" y="265.237071"/>
    </g>
    <g clip-path="url(#p132d557168)">
     <use style="fill:#ff756d;stroke:#ffffff;stroke-width:0.8;" x="82.502926" xlink:href="#C0_0_52028350d8" y="261.838272"/>
    </g>
    <g clip-path="url(#p132d557168)">
     <use style="fill:#01c19e;stroke:#ffffff;stroke-width:0.8;" x="109.456439" xlink:href="#C0_0_52028350d8" y="304.375953"/>
    </g>
    <g clip-path="url(#p132d557168)">
     <use style="fill:#6b8ae0;stroke:#ffffff;stroke-width:0.8;" x="109.456439" xlink:href="#C0_0_52028350d8" y="281.723473"/>
    </g>
    <g clip-path="url(#p132d557168)">
     <use style="fill:#ff756d;stroke:#ffffff;stroke-width:0.8;" x="109.456439" xlink:href="#C0_0_52028350d8" y="268.461382"/>
    </g>
    <g clip-path="url(#p132d557168)">
     <use style="fill:#01c19e;stroke:#ffffff;stroke-width:0.8;" x="163.363463" xlink:href="#C0_0_52028350d8" y="286.414779"/>
    </g>
    <g clip-path="url(#p132d557168)">
     <use style="fill:#6b8ae0;stroke:#ffffff;stroke-width:0.8;" x="163.363463" xlink:href="#C0_0_52028350d8" y="269.264361"/>
    </g>
    <g clip-path="url(#p132d557168)">
     <use style="fill:#ff756d;stroke:#ffffff;stroke-width:0.8;" x="163.363463" xlink:href="#C0_0_52028350d8" y="265.938067"/>
    </g>
    <g clip-path="url(#p132d557168)">
     <use style="fill:#01c19e;stroke:#ffffff;stroke-width:0.8;" x="217.270488" xlink:href="#C0_0_52028350d8" y="258.092532"/>
    </g>
    <g clip-path="url(#p132d557168)">
     <use style="fill:#6b8ae0;stroke:#ffffff;stroke-width:0.8;" x="217.270488" xlink:href="#C0_0_52028350d8" y="257.039899"/>
    </g>
    <g clip-path="url(#p132d557168)">
     <use style="fill:#ff756d;stroke:#ffffff;stroke-width:0.8;" x="217.270488" xlink:href="#C0_0_52028350d8" y="257.24545"/>
    </g>
   </g>
   <g id="PathCollection_2"/>
   <g id="PathCollection_3"/>
   <g id="PathCollection_4"/>
   <g id="PolyCollection_1">
    <path clip-path="url(#p132d557168)" d="M 82.502926 262.801584 
L 82.502926 320.392395 
L 88.492596 317.711326 
L 94.482265 315.030257 
L 100.471934 312.349188 
L 106.461604 309.66812 
L 112.451273 306.987051 
L 118.440943 304.395256 
L 124.430612 301.821006 
L 130.420282 299.247699 
L 136.409951 296.945182 
L 142.39962 297.037066 
L 148.38929 295.882904 
L 154.378959 296.124923 
L 160.368629 296.211909 
L 166.358298 296.298894 
L 172.347967 296.385879 
L 178.337637 296.472865 
L 184.327306 296.55985 
L 190.316976 296.646835 
L 196.306645 296.733821 
L 202.296315 296.820806 
L 208.285984 296.976116 
L 214.275653 297.512211 
L 220.265323 297.595899 
L 226.254992 298.321111 
L 232.244662 298.896713 
L 238.234331 299.826509 
L 244.224001 300.665586 
L 250.21367 301.318151 
L 256.203339 301.725215 
L 262.193009 302.388545 
L 268.182678 302.953591 
L 274.172348 303.898308 
L 280.162017 304.843025 
L 286.151686 305.787742 
L 292.141356 306.732459 
L 298.131025 307.677176 
L 304.120695 308.621893 
L 310.110364 309.56661 
L 316.100034 310.511327 
L 322.089703 311.456044 
L 328.079372 312.400761 
L 334.069042 313.345478 
L 340.058711 314.290195 
L 346.048381 315.234912 
L 352.03805 316.179102 
L 358.02772 317.121093 
L 364.017389 318.063085 
L 370.007058 319.005076 
L 375.996728 319.947067 
L 381.986397 320.889059 
L 387.976067 321.83105 
L 393.965736 322.773042 
L 399.955405 323.715033 
L 405.945075 324.657025 
L 411.934744 325.601278 
L 417.924414 326.545531 
L 423.914083 327.489784 
L 429.903753 328.434037 
L 435.893422 329.37829 
L 441.883091 330.322543 
L 447.872761 331.266796 
L 453.86243 332.211049 
L 459.8521 333.155302 
L 465.841769 334.099555 
L 471.831439 335.043808 
L 477.821108 335.988061 
L 483.810777 336.932314 
L 489.800447 337.876567 
L 495.790116 338.82082 
L 501.779786 339.765073 
L 507.769455 340.709326 
L 513.759124 341.653579 
L 519.748794 342.597832 
L 525.738463 343.542085 
L 531.728133 344.486338 
L 537.717802 345.430591 
L 543.707472 346.374844 
L 549.697141 347.319096 
L 555.68681 348.263349 
L 561.67648 349.207602 
L 567.666149 350.151855 
L 573.655819 351.096108 
L 579.645488 352.040361 
L 585.635158 352.984614 
L 591.624827 353.928867 
L 597.614496 354.87312 
L 603.604166 355.817373 
L 609.593835 356.761626 
L 615.583505 357.705879 
L 621.573174 358.650132 
L 627.562843 359.594385 
L 633.552513 360.538638 
L 639.542182 361.482891 
L 645.531852 362.427144 
L 651.521521 363.371397 
L 657.511191 364.31565 
L 663.50086 365.259903 
L 669.490529 366.204156 
L 675.480199 367.148409 
L 675.480199 54.966591 
L 675.480199 54.966591 
L 669.490529 57.64766 
L 663.50086 60.328728 
L 657.511191 63.009797 
L 651.521521 65.690866 
L 645.531852 68.371935 
L 639.542182 71.053003 
L 633.552513 73.734072 
L 627.562843 76.415141 
L 621.573174 79.096209 
L 615.583505 81.777278 
L 609.593835 84.458347 
L 603.604166 87.139416 
L 597.614496 89.820484 
L 591.624827 92.501553 
L 585.635158 95.182622 
L 579.645488 97.86369 
L 573.655819 100.544759 
L 567.666149 103.225828 
L 561.67648 105.906897 
L 555.68681 108.587965 
L 549.697141 111.269034 
L 543.707472 113.950103 
L 537.717802 116.631172 
L 531.728133 119.31224 
L 525.738463 121.993309 
L 519.748794 124.674378 
L 513.759124 127.355446 
L 507.769455 130.036515 
L 501.779786 132.717584 
L 495.790116 135.398653 
L 489.800447 138.079721 
L 483.810777 140.76079 
L 477.821108 143.441859 
L 471.831439 146.122928 
L 465.841769 148.803996 
L 459.8521 151.485065 
L 453.86243 154.166134 
L 447.872761 156.847202 
L 441.883091 159.528271 
L 435.893422 162.20934 
L 429.903753 164.890409 
L 423.914083 167.571477 
L 417.924414 170.252546 
L 411.934744 172.933615 
L 405.945075 175.614683 
L 399.955405 178.295752 
L 393.965736 180.976821 
L 387.976067 183.65789 
L 381.986397 186.338958 
L 375.996728 189.020027 
L 370.007058 191.701096 
L 364.017389 194.382165 
L 358.02772 197.063233 
L 352.03805 199.744302 
L 346.048381 202.425371 
L 340.058711 205.106439 
L 334.069042 207.787508 
L 328.079372 210.468577 
L 322.089703 213.153637 
L 316.100034 215.84269 
L 310.110364 218.531742 
L 304.120695 221.220795 
L 298.131025 223.873921 
L 292.141356 226.554989 
L 286.151686 229.236058 
L 280.162017 231.917127 
L 274.172348 234.598195 
L 268.182678 237.279264 
L 262.193009 239.960333 
L 256.203339 242.641402 
L 250.21367 245.32247 
L 244.224001 247.963638 
L 238.234331 250.51029 
L 232.244662 253.056942 
L 226.254992 255.603595 
L 220.265323 258.150247 
L 214.275653 260.694579 
L 208.285984 263.021711 
L 202.296315 265.542998 
L 196.306645 266.763021 
L 190.316976 267.472722 
L 184.327306 267.228299 
L 178.337637 267.356478 
L 172.347967 267.660449 
L 166.358298 267.458715 
L 160.368629 267.089026 
L 154.378959 266.719337 
L 148.38929 266.349648 
L 142.39962 266.726085 
L 136.409951 266.520362 
L 130.420282 266.107164 
L 124.430612 265.693967 
L 118.440943 265.280769 
L 112.451273 264.867572 
L 106.461604 264.454374 
L 100.471934 264.041177 
L 94.482265 263.627979 
L 88.492596 263.214782 
L 82.502926 262.801584 
z
" style="fill:#01c19e;fill-opacity:0.15;"/>
   </g>
   <g id="PolyCollection_2">
    <path clip-path="url(#p132d557168)" d="M 82.502926 260.6695 
L 82.502926 290.025094 
L 88.492596 288.586274 
L 94.482265 287.181989 
L 100.471934 285.810679 
L 106.461604 284.43937 
L 112.451273 283.06806 
L 118.440943 281.69675 
L 124.430612 280.374865 
L 130.420282 279.535128 
L 136.409951 278.655139 
L 142.39962 278.206563 
L 148.38929 277.227914 
L 154.378959 276.990652 
L 160.368629 277.030818 
L 166.358298 277.041993 
L 172.347967 277.304415 
L 178.337637 277.366168 
L 184.327306 277.531613 
L 190.316976 277.994093 
L 196.306645 278.135213 
L 202.296315 278.240757 
L 208.285984 278.715736 
L 214.275653 278.707351 
L 220.265323 278.977488 
L 226.254992 279.461798 
L 232.244662 279.719952 
L 238.234331 280.299267 
L 244.224001 280.725483 
L 250.21367 280.925905 
L 256.203339 281.103305 
L 262.193009 281.295555 
L 268.182678 281.751845 
L 274.172348 282.278473 
L 280.162017 282.808987 
L 286.151686 283.341469 
L 292.141356 283.873952 
L 298.131025 284.388261 
L 304.120695 284.821742 
L 310.110364 285.255223 
L 316.100034 285.688704 
L 322.089703 286.122185 
L 328.079372 286.555666 
L 334.069042 286.989147 
L 340.058711 287.422628 
L 346.048381 287.856109 
L 352.03805 288.28959 
L 358.02772 288.723071 
L 364.017389 289.156552 
L 370.007058 289.590033 
L 375.996728 290.023515 
L 381.986397 290.456996 
L 387.976067 290.890477 
L 393.965736 291.323958 
L 399.955405 291.757439 
L 405.945075 292.19092 
L 411.934744 292.623197 
L 417.924414 293.055474 
L 423.914083 293.48775 
L 429.903753 293.920027 
L 435.893422 294.352304 
L 441.883091 294.784581 
L 447.872761 295.216857 
L 453.86243 295.649134 
L 459.8521 296.081411 
L 465.841769 296.513688 
L 471.831439 296.945965 
L 477.821108 297.378241 
L 483.810777 297.838369 
L 489.800447 298.323985 
L 495.790116 298.809601 
L 501.779786 299.295217 
L 507.769455 299.780832 
L 513.759124 300.266448 
L 519.748794 300.752064 
L 525.738463 301.23768 
L 531.728133 301.723296 
L 537.717802 302.208912 
L 543.707472 302.694528 
L 549.697141 303.180144 
L 555.68681 303.66576 
L 561.67648 304.151376 
L 567.666149 304.636991 
L 573.655819 305.122607 
L 579.645488 305.608223 
L 585.635158 306.093773 
L 591.624827 306.578843 
L 597.614496 307.063913 
L 603.604166 307.548983 
L 609.593835 308.034053 
L 615.583505 308.519123 
L 621.573174 309.004194 
L 627.562843 309.489264 
L 633.552513 309.974334 
L 639.542182 310.459404 
L 645.531852 310.944474 
L 651.521521 311.429544 
L 657.511191 311.914614 
L 663.50086 312.399684 
L 669.490529 312.884755 
L 675.480199 313.369825 
L 675.480199 149.851885 
L 675.480199 149.851885 
L 669.490529 151.262218 
L 663.50086 152.67255 
L 657.511191 154.082882 
L 651.521521 155.493215 
L 645.531852 156.903547 
L 639.542182 158.313879 
L 633.552513 159.724211 
L 627.562843 161.134544 
L 621.573174 162.544876 
L 615.583505 163.955208 
L 609.593835 165.365541 
L 603.604166 166.775873 
L 597.614496 168.186205 
L 591.624827 169.596538 
L 585.635158 171.00687 
L 579.645488 172.417202 
L 573.655819 173.827535 
L 567.666149 175.237867 
L 561.67648 176.648199 
L 555.68681 178.058531 
L 549.697141 179.468864 
L 543.707472 180.879196 
L 537.717802 182.289528 
L 531.728133 183.699861 
L 525.738463 185.110193 
L 519.748794 186.520525 
L 513.759124 187.930858 
L 507.769455 189.34119 
L 501.779786 190.751522 
L 495.790116 192.161855 
L 489.800447 193.572187 
L 483.810777 194.982519 
L 477.821108 196.392852 
L 471.831439 197.803184 
L 465.841769 199.213516 
L 459.8521 200.623848 
L 453.86243 202.034181 
L 447.872761 203.444513 
L 441.883091 204.854845 
L 435.893422 206.265178 
L 429.903753 207.675147 
L 423.914083 209.084829 
L 417.924414 210.494512 
L 411.934744 211.904195 
L 405.945075 213.313877 
L 399.955405 214.72356 
L 393.965736 216.133242 
L 387.976067 217.542925 
L 381.986397 218.952608 
L 375.996728 220.36229 
L 370.007058 221.771973 
L 364.017389 223.18245 
L 358.02772 224.593816 
L 352.03805 226.005181 
L 346.048381 227.416547 
L 340.058711 228.796301 
L 334.069042 230.178842 
L 328.079372 231.630498 
L 322.089703 233.009665 
L 316.100034 234.381413 
L 310.110364 235.753161 
L 304.120695 237.124909 
L 298.131025 238.496657 
L 292.141356 239.868405 
L 286.151686 241.240153 
L 280.162017 242.611901 
L 274.172348 243.983781 
L 268.182678 245.382187 
L 262.193009 246.750943 
L 256.203339 248.1197 
L 250.21367 249.488456 
L 244.224001 250.857212 
L 238.234331 252.225969 
L 232.244662 253.596519 
L 226.254992 254.967325 
L 220.265323 256.338131 
L 214.275653 257.858217 
L 208.285984 259.096514 
L 202.296315 260.435583 
L 196.306645 261.706791 
L 190.316976 262.081235 
L 184.327306 262.592526 
L 178.337637 262.954433 
L 172.347967 262.790438 
L 166.358298 262.740154 
L 160.368629 262.655855 
L 154.378959 262.482799 
L 148.38929 262.307338 
L 142.39962 262.131877 
L 136.409951 261.958158 
L 130.420282 261.928572 
L 124.430612 261.770789 
L 118.440943 261.613006 
L 112.451273 261.45553 
L 106.461604 261.298324 
L 100.471934 261.141118 
L 94.482265 260.983912 
L 88.492596 260.826706 
L 82.502926 260.6695 
z
" style="fill:#6b8ae0;fill-opacity:0.15;"/>
   </g>
   <g id="PolyCollection_3">
    <path clip-path="url(#p132d557168)" d="M 82.502926 257.872734 
L 82.502926 273.422793 
L 88.492596 272.731196 
L 94.482265 272.073843 
L 100.471934 271.450736 
L 106.461604 270.827629 
L 112.451273 270.204522 
L 118.440943 269.581414 
L 124.430612 268.929806 
L 130.420282 268.246215 
L 136.409951 267.712092 
L 142.39962 267.689595 
L 148.38929 267.774808 
L 154.378959 267.554827 
L 160.368629 267.645395 
L 166.358298 267.735963 
L 172.347967 267.832861 
L 178.337637 267.924849 
L 184.327306 268.016837 
L 190.316976 268.108825 
L 196.306645 268.272372 
L 202.296315 268.519289 
L 208.285984 268.712372 
L 214.275653 268.932417 
L 220.265323 269.152461 
L 226.254992 269.309216 
L 232.244662 269.428067 
L 238.234331 269.731658 
L 244.224001 270.03264 
L 250.21367 270.25282 
L 256.203339 270.47287 
L 262.193009 270.69292 
L 268.182678 270.912969 
L 274.172348 271.133019 
L 280.162017 271.353069 
L 286.151686 271.573119 
L 292.141356 271.793168 
L 298.131025 272.013218 
L 304.120695 272.233268 
L 310.110364 272.453318 
L 316.100034 272.673368 
L 322.089703 272.893417 
L 328.079372 273.113467 
L 334.069042 273.333517 
L 340.058711 273.553567 
L 346.048381 273.773616 
L 352.03805 273.993666 
L 358.02772 274.213716 
L 364.017389 274.433766 
L 370.007058 274.653815 
L 375.996728 274.873865 
L 381.986397 275.093915 
L 387.976067 275.313965 
L 393.965736 275.534014 
L 399.955405 275.754064 
L 405.945075 275.974114 
L 411.934744 276.194164 
L 417.924414 276.414214 
L 423.914083 276.634263 
L 429.903753 276.858487 
L 435.893422 277.086101 
L 441.883091 277.32042 
L 447.872761 277.555263 
L 453.86243 277.790106 
L 459.8521 278.024948 
L 465.841769 278.259791 
L 471.831439 278.494634 
L 477.821108 278.729477 
L 483.810777 278.96432 
L 489.800447 279.199162 
L 495.790116 279.434005 
L 501.779786 279.668848 
L 507.769455 279.903691 
L 513.759124 280.138534 
L 519.748794 280.373376 
L 525.738463 280.608219 
L 531.728133 280.843062 
L 537.717802 281.077905 
L 543.707472 281.312748 
L 549.697141 281.54759 
L 555.68681 281.782433 
L 561.67648 282.017276 
L 567.666149 282.252119 
L 573.655819 282.486962 
L 579.645488 282.721804 
L 585.635158 282.956647 
L 591.624827 283.19149 
L 597.614496 283.426333 
L 603.604166 283.661176 
L 609.593835 283.896018 
L 615.583505 284.130861 
L 621.573174 284.365704 
L 627.562843 284.600547 
L 633.552513 284.83539 
L 639.542182 285.070233 
L 645.531852 285.305075 
L 651.521521 285.539918 
L 657.511191 285.774761 
L 663.50086 286.009604 
L 669.490529 286.244447 
L 675.480199 286.479289 
L 675.480199 206.043458 
L 675.480199 206.043458 
L 669.490529 206.72698 
L 663.50086 207.410503 
L 657.511191 208.094025 
L 651.521521 208.777547 
L 645.531852 209.46107 
L 639.542182 210.144592 
L 633.552513 210.828115 
L 627.562843 211.511637 
L 621.573174 212.195159 
L 615.583505 212.878682 
L 609.593835 213.562204 
L 603.604166 214.245727 
L 597.614496 214.929249 
L 591.624827 215.612771 
L 585.635158 216.296294 
L 579.645488 216.979816 
L 573.655819 217.663339 
L 567.666149 218.346861 
L 561.67648 219.030383 
L 555.68681 219.713906 
L 549.697141 220.397428 
L 543.707472 221.080951 
L 537.717802 221.764473 
L 531.728133 222.447995 
L 525.738463 223.131518 
L 519.748794 223.81504 
L 513.759124 224.498563 
L 507.769455 225.182085 
L 501.779786 225.865608 
L 495.790116 226.54913 
L 489.800447 227.232652 
L 483.810777 227.916175 
L 477.821108 228.599697 
L 471.831439 229.28322 
L 465.841769 229.966742 
L 459.8521 230.650264 
L 453.86243 231.333787 
L 447.872761 232.017309 
L 441.883091 232.700832 
L 435.893422 233.384354 
L 429.903753 234.067876 
L 423.914083 234.751399 
L 417.924414 235.434921 
L 411.934744 236.118444 
L 405.945075 236.801966 
L 399.955405 237.485488 
L 393.965736 238.169011 
L 387.976067 238.852533 
L 381.986397 239.536056 
L 375.996728 240.219578 
L 370.007058 240.903101 
L 364.017389 241.586623 
L 358.02772 242.270145 
L 352.03805 242.953668 
L 346.048381 243.63719 
L 340.058711 244.320713 
L 334.069042 245.004235 
L 328.079372 245.687757 
L 322.089703 246.37128 
L 316.100034 247.054802 
L 310.110364 247.738325 
L 304.120695 248.421847 
L 298.131025 249.105369 
L 292.141356 249.788892 
L 286.151686 250.472414 
L 280.162017 251.155937 
L 274.172348 251.839459 
L 268.182678 252.522981 
L 262.193009 253.206504 
L 256.203339 253.890026 
L 250.21367 254.573538 
L 244.224001 255.25706 
L 238.234331 255.940581 
L 232.244662 256.622567 
L 226.254992 256.964952 
L 220.265323 257.515122 
L 214.275653 257.988214 
L 208.285984 258.69393 
L 202.296315 259.317664 
L 196.306645 259.615463 
L 190.316976 259.976847 
L 184.327306 259.975215 
L 178.337637 260.241708 
L 172.347967 260.13317 
L 166.358298 260.067548 
L 160.368629 260.020163 
L 154.378959 259.854976 
L 148.38929 259.689789 
L 142.39962 259.524602 
L 136.409951 259.359415 
L 130.420282 259.194229 
L 124.430612 259.029042 
L 118.440943 258.863855 
L 112.451273 258.698668 
L 106.461604 258.533481 
L 100.471934 258.368294 
L 94.482265 258.203107 
L 88.492596 258.03792 
L 82.502926 257.872734 
z
" style="fill:#ff756d;fill-opacity:0.15;"/>
   </g>
   <g id="matplotlib.axis_1">
    <g id="xtick_1">
     <g id="line2d_1">
      <path clip-path="url(#p132d557168)" d="M 55.549414 382.7575 
L 55.549414 39.3575 
" style="fill:none;stroke:#b0b0b0;stroke-linecap:square;stroke-opacity:0.3;stroke-width:0.8;"/>
     </g>
     <g id="line2d_2">
      <defs>
       <path d="M 0 0 
L 0 3.5 
" id="mc53c407fd4" style="stroke:#000000;stroke-width:0.8;"/>
      </defs>
      <g>
       <use style="stroke:#000000;stroke-width:0.8;" x="55.549414" xlink:href="#mc53c407fd4" y="382.7575"/>
      </g>
     </g>
     <g id="text_1">
      <!-- 0 -->
      <g transform="translate(52.368164 397.355937)scale(0.1 -0.1)">
       <defs>
        <path d="M 2034 4250 
Q 1547 4250 1301 3770 
Q 1056 3291 1056 2328 
Q 1056 1369 1301 889 
Q 1547 409 2034 409 
Q 2525 409 2770 889 
Q 3016 1369 3016 2328 
Q 3016 3291 2770 3770 
Q 2525 4250 2034 4250 
z
M 2034 4750 
Q 2819 4750 3233 4129 
Q 3647 3509 3647 2328 
Q 3647 1150 3233 529 
Q 2819 -91 2034 -91 
Q 1250 -91 836 529 
Q 422 1150 422 2328 
Q 422 3509 836 4129 
Q 1250 4750 2034 4750 
z
" id="DejaVuSans-30" transform="scale(0.015625)"/>
       </defs>
       <use xlink:href="#DejaVuSans-30"/>
      </g>
     </g>
    </g>
    <g id="xtick_2">
     <g id="line2d_3">
      <path clip-path="url(#p132d557168)" d="M 82.502926 382.7575 
L 82.502926 39.3575 
" style="fill:none;stroke:#b0b0b0;stroke-linecap:square;stroke-opacity:0.3;stroke-width:0.8;"/>
     </g>
     <g id="line2d_4">
      <g>
       <use style="stroke:#000000;stroke-width:0.8;" x="82.502926" xlink:href="#mc53c407fd4" y="382.7575"/>
      </g>
     </g>
     <g id="text_2">
      <!-- 1 -->
      <g transform="translate(79.321676 397.355937)scale(0.1 -0.1)">
       <defs>
        <path d="M 794 531 
L 1825 531 
L 1825 4091 
L 703 3866 
L 703 4441 
L 1819 4666 
L 2450 4666 
L 2450 531 
L 3481 531 
L 3481 0 
L 794 0 
L 794 531 
z
" id="DejaVuSans-31" transform="scale(0.015625)"/>
       </defs>
       <use xlink:href="#DejaVuSans-31"/>
      </g>
     </g>
    </g>
    <g id="xtick_3">
     <g id="line2d_5">
      <path clip-path="url(#p132d557168)" d="M 109.456439 382.7575 
L 109.456439 39.3575 
" style="fill:none;stroke:#b0b0b0;stroke-linecap:square;stroke-opacity:0.3;stroke-width:0.8;"/>
     </g>
     <g id="line2d_6">
      <g>
       <use style="stroke:#000000;stroke-width:0.8;" x="109.456439" xlink:href="#mc53c407fd4" y="382.7575"/>
      </g>
     </g>
     <g id="text_3">
      <!-- 2 -->
      <g transform="translate(106.275189 397.355937)scale(0.1 -0.1)">
       <defs>
        <path d="M 1228 531 
L 3431 531 
L 3431 0 
L 469 0 
L 469 531 
Q 828 903 1448 1529 
Q 2069 2156 2228 2338 
Q 2531 2678 2651 2914 
Q 2772 3150 2772 3378 
Q 2772 3750 2511 3984 
Q 2250 4219 1831 4219 
Q 1534 4219 1204 4116 
Q 875 4013 500 3803 
L 500 4441 
Q 881 4594 1212 4672 
Q 1544 4750 1819 4750 
Q 2544 4750 2975 4387 
Q 3406 4025 3406 3419 
Q 3406 3131 3298 2873 
Q 3191 2616 2906 2266 
Q 2828 2175 2409 1742 
Q 1991 1309 1228 531 
z
" id="DejaVuSans-32" transform="scale(0.015625)"/>
       </defs>
       <use xlink:href="#DejaVuSans-32"/>
      </g>
     </g>
    </g>
    <g id="xtick_4">
     <g id="line2d_7">
      <path clip-path="url(#p132d557168)" d="M 136.409951 382.7575 
L 136.409951 39.3575 
" style="fill:none;stroke:#b0b0b0;stroke-linecap:square;stroke-opacity:0.3;stroke-width:0.8;"/>
     </g>
     <g id="line2d_8">
      <g>
       <use style="stroke:#000000;stroke-width:0.8;" x="136.409951" xlink:href="#mc53c407fd4" y="382.7575"/>
      </g>
     </g>
     <g id="text_4">
      <!-- 3 -->
      <g transform="translate(133.228701 397.355937)scale(0.1 -0.1)">
       <defs>
        <path d="M 2597 2516 
Q 3050 2419 3304 2112 
Q 3559 1806 3559 1356 
Q 3559 666 3084 287 
Q 2609 -91 1734 -91 
Q 1441 -91 1130 -33 
Q 819 25 488 141 
L 488 750 
Q 750 597 1062 519 
Q 1375 441 1716 441 
Q 2309 441 2620 675 
Q 2931 909 2931 1356 
Q 2931 1769 2642 2001 
Q 2353 2234 1838 2234 
L 1294 2234 
L 1294 2753 
L 1863 2753 
Q 2328 2753 2575 2939 
Q 2822 3125 2822 3475 
Q 2822 3834 2567 4026 
Q 2313 4219 1838 4219 
Q 1578 4219 1281 4162 
Q 984 4106 628 3988 
L 628 4550 
Q 988 4650 1302 4700 
Q 1616 4750 1894 4750 
Q 2613 4750 3031 4423 
Q 3450 4097 3450 3541 
Q 3450 3153 3228 2886 
Q 3006 2619 2597 2516 
z
" id="DejaVuSans-33" transform="scale(0.015625)"/>
       </defs>
       <use xlink:href="#DejaVuSans-33"/>
      </g>
     </g>
    </g>
    <g id="xtick_5">
     <g id="line2d_9">
      <path clip-path="url(#p132d557168)" d="M 163.363463 382.7575 
L 163.363463 39.3575 
" style="fill:none;stroke:#b0b0b0;stroke-linecap:square;stroke-opacity:0.3;stroke-width:0.8;"/>
     </g>
     <g id="line2d_10">
      <g>
       <use style="stroke:#000000;stroke-width:0.8;" x="163.363463" xlink:href="#mc53c407fd4" y="382.7575"/>
      </g>
     </g>
     <g id="text_5">
      <!-- 4 -->
      <g transform="translate(160.182213 397.355937)scale(0.1 -0.1)">
       <defs>
        <path d="M 2419 4116 
L 825 1625 
L 2419 1625 
L 2419 4116 
z
M 2253 4666 
L 3047 4666 
L 3047 1625 
L 3713 1625 
L 3713 1100 
L 3047 1100 
L 3047 0 
L 2419 0 
L 2419 1100 
L 313 1100 
L 313 1709 
L 2253 4666 
z
" id="DejaVuSans-34" transform="scale(0.015625)"/>
       </defs>
       <use xlink:href="#DejaVuSans-34"/>
      </g>
     </g>
    </g>
    <g id="xtick_6">
     <g id="line2d_11">
      <path clip-path="url(#p132d557168)" d="M 190.316976 382.7575 
L 190.316976 39.3575 
" style="fill:none;stroke:#b0b0b0;stroke-linecap:square;stroke-opacity:0.3;stroke-width:0.8;"/>
     </g>
     <g id="line2d_12">
      <g>
       <use style="stroke:#000000;stroke-width:0.8;" x="190.316976" xlink:href="#mc53c407fd4" y="382.7575"/>
      </g>
     </g>
     <g id="text_6">
      <!-- 5 -->
      <g transform="translate(187.135726 397.355937)scale(0.1 -0.1)">
       <defs>
        <path d="M 691 4666 
L 3169 4666 
L 3169 4134 
L 1269 4134 
L 1269 2991 
Q 1406 3038 1543 3061 
Q 1681 3084 1819 3084 
Q 2600 3084 3056 2656 
Q 3513 2228 3513 1497 
Q 3513 744 3044 326 
Q 2575 -91 1722 -91 
Q 1428 -91 1123 -41 
Q 819 9 494 109 
L 494 744 
Q 775 591 1075 516 
Q 1375 441 1709 441 
Q 2250 441 2565 725 
Q 2881 1009 2881 1497 
Q 2881 1984 2565 2268 
Q 2250 2553 1709 2553 
Q 1456 2553 1204 2497 
Q 953 2441 691 2322 
L 691 4666 
z
" id="DejaVuSans-35" transform="scale(0.015625)"/>
       </defs>
       <use xlink:href="#DejaVuSans-35"/>
      </g>
     </g>
    </g>
    <g id="xtick_7">
     <g id="line2d_13">
      <path clip-path="url(#p132d557168)" d="M 217.270488 382.7575 
L 217.270488 39.3575 
" style="fill:none;stroke:#b0b0b0;stroke-linecap:square;stroke-opacity:0.3;stroke-width:0.8;"/>
     </g>
     <g id="line2d_14">
      <g>
       <use style="stroke:#000000;stroke-width:0.8;" x="217.270488" xlink:href="#mc53c407fd4" y="382.7575"/>
      </g>
     </g>
     <g id="text_7">
      <!-- 6 -->
      <g transform="translate(214.089238 397.355937)scale(0.1 -0.1)">
       <defs>
        <path d="M 2113 2584 
Q 1688 2584 1439 2293 
Q 1191 2003 1191 1497 
Q 1191 994 1439 701 
Q 1688 409 2113 409 
Q 2538 409 2786 701 
Q 3034 994 3034 1497 
Q 3034 2003 2786 2293 
Q 2538 2584 2113 2584 
z
M 3366 4563 
L 3366 3988 
Q 3128 4100 2886 4159 
Q 2644 4219 2406 4219 
Q 1781 4219 1451 3797 
Q 1122 3375 1075 2522 
Q 1259 2794 1537 2939 
Q 1816 3084 2150 3084 
Q 2853 3084 3261 2657 
Q 3669 2231 3669 1497 
Q 3669 778 3244 343 
Q 2819 -91 2113 -91 
Q 1303 -91 875 529 
Q 447 1150 447 2328 
Q 447 3434 972 4092 
Q 1497 4750 2381 4750 
Q 2619 4750 2861 4703 
Q 3103 4656 3366 4563 
z
" id="DejaVuSans-36" transform="scale(0.015625)"/>
       </defs>
       <use xlink:href="#DejaVuSans-36"/>
      </g>
     </g>
    </g>
    <g id="xtick_8">
     <g id="line2d_15">
      <path clip-path="url(#p132d557168)" d="M 244.224001 382.7575 
L 244.224001 39.3575 
" style="fill:none;stroke:#b0b0b0;stroke-linecap:square;stroke-opacity:0.3;stroke-width:0.8;"/>
     </g>
     <g id="line2d_16">
      <g>
       <use style="stroke:#000000;stroke-width:0.8;" x="244.224001" xlink:href="#mc53c407fd4" y="382.7575"/>
      </g>
     </g>
     <g id="text_8">
      <!-- 7 -->
      <g transform="translate(241.042751 397.355937)scale(0.1 -0.1)">
       <defs>
        <path d="M 525 4666 
L 3525 4666 
L 3525 4397 
L 1831 0 
L 1172 0 
L 2766 4134 
L 525 4134 
L 525 4666 
z
" id="DejaVuSans-37" transform="scale(0.015625)"/>
       </defs>
       <use xlink:href="#DejaVuSans-37"/>
      </g>
     </g>
    </g>
    <g id="xtick_9">
     <g id="line2d_17">
      <path clip-path="url(#p132d557168)" d="M 271.177513 382.7575 
L 271.177513 39.3575 
" style="fill:none;stroke:#b0b0b0;stroke-linecap:square;stroke-opacity:0.3;stroke-width:0.8;"/>
     </g>
     <g id="line2d_18">
      <g>
       <use style="stroke:#000000;stroke-width:0.8;" x="271.177513" xlink:href="#mc53c407fd4" y="382.7575"/>
      </g>
     </g>
     <g id="text_9">
      <!-- 8 -->
      <g transform="translate(267.996263 397.355937)scale(0.1 -0.1)">
       <defs>
        <path d="M 2034 2216 
Q 1584 2216 1326 1975 
Q 1069 1734 1069 1313 
Q 1069 891 1326 650 
Q 1584 409 2034 409 
Q 2484 409 2743 651 
Q 3003 894 3003 1313 
Q 3003 1734 2745 1975 
Q 2488 2216 2034 2216 
z
M 1403 2484 
Q 997 2584 770 2862 
Q 544 3141 544 3541 
Q 544 4100 942 4425 
Q 1341 4750 2034 4750 
Q 2731 4750 3128 4425 
Q 3525 4100 3525 3541 
Q 3525 3141 3298 2862 
Q 3072 2584 2669 2484 
Q 3125 2378 3379 2068 
Q 3634 1759 3634 1313 
Q 3634 634 3220 271 
Q 2806 -91 2034 -91 
Q 1263 -91 848 271 
Q 434 634 434 1313 
Q 434 1759 690 2068 
Q 947 2378 1403 2484 
z
M 1172 3481 
Q 1172 3119 1398 2916 
Q 1625 2713 2034 2713 
Q 2441 2713 2670 2916 
Q 2900 3119 2900 3481 
Q 2900 3844 2670 4047 
Q 2441 4250 2034 4250 
Q 1625 4250 1398 4047 
Q 1172 3844 1172 3481 
z
" id="DejaVuSans-38" transform="scale(0.015625)"/>
       </defs>
       <use xlink:href="#DejaVuSans-38"/>
      </g>
     </g>
    </g>
    <g id="xtick_10">
     <g id="line2d_19">
      <path clip-path="url(#p132d557168)" d="M 298.131025 382.7575 
L 298.131025 39.3575 
" style="fill:none;stroke:#b0b0b0;stroke-linecap:square;stroke-opacity:0.3;stroke-width:0.8;"/>
     </g>
     <g id="line2d_20">
      <g>
       <use style="stroke:#000000;stroke-width:0.8;" x="298.131025" xlink:href="#mc53c407fd4" y="382.7575"/>
      </g>
     </g>
     <g id="text_10">
      <!-- 9 -->
      <g transform="translate(294.949775 397.355937)scale(0.1 -0.1)">
       <defs>
        <path d="M 703 97 
L 703 672 
Q 941 559 1184 500 
Q 1428 441 1663 441 
Q 2288 441 2617 861 
Q 2947 1281 2994 2138 
Q 2813 1869 2534 1725 
Q 2256 1581 1919 1581 
Q 1219 1581 811 2004 
Q 403 2428 403 3163 
Q 403 3881 828 4315 
Q 1253 4750 1959 4750 
Q 2769 4750 3195 4129 
Q 3622 3509 3622 2328 
Q 3622 1225 3098 567 
Q 2575 -91 1691 -91 
Q 1453 -91 1209 -44 
Q 966 3 703 97 
z
M 1959 2075 
Q 2384 2075 2632 2365 
Q 2881 2656 2881 3163 
Q 2881 3666 2632 3958 
Q 2384 4250 1959 4250 
Q 1534 4250 1286 3958 
Q 1038 3666 1038 3163 
Q 1038 2656 1286 2365 
Q 1534 2075 1959 2075 
z
" id="DejaVuSans-39" transform="scale(0.015625)"/>
       </defs>
       <use xlink:href="#DejaVuSans-39"/>
      </g>
     </g>
    </g>
    <g id="xtick_11">
     <g id="line2d_21">
      <path clip-path="url(#p132d557168)" d="M 325.084538 382.7575 
L 325.084538 39.3575 
" style="fill:none;stroke:#b0b0b0;stroke-linecap:square;stroke-opacity:0.3;stroke-width:0.8;"/>
     </g>
     <g id="line2d_22">
      <g>
       <use style="stroke:#000000;stroke-width:0.8;" x="325.084538" xlink:href="#mc53c407fd4" y="382.7575"/>
      </g>
     </g>
     <g id="text_11">
      <!-- 10 -->
      <g transform="translate(318.722038 397.355937)scale(0.1 -0.1)">
       <use xlink:href="#DejaVuSans-31"/>
       <use x="63.623047" xlink:href="#DejaVuSans-30"/>
      </g>
     </g>
    </g>
    <g id="xtick_12">
     <g id="line2d_23">
      <path clip-path="url(#p132d557168)" d="M 352.03805 382.7575 
L 352.03805 39.3575 
" style="fill:none;stroke:#b0b0b0;stroke-linecap:square;stroke-opacity:0.3;stroke-width:0.8;"/>
     </g>
     <g id="line2d_24">
      <g>
       <use style="stroke:#000000;stroke-width:0.8;" x="352.03805" xlink:href="#mc53c407fd4" y="382.7575"/>
      </g>
     </g>
     <g id="text_12">
      <!-- 11 -->
      <g transform="translate(345.67555 397.355937)scale(0.1 -0.1)">
       <use xlink:href="#DejaVuSans-31"/>
       <use x="63.623047" xlink:href="#DejaVuSans-31"/>
      </g>
     </g>
    </g>
    <g id="xtick_13">
     <g id="line2d_25">
      <path clip-path="url(#p132d557168)" d="M 378.991562 382.7575 
L 378.991562 39.3575 
" style="fill:none;stroke:#b0b0b0;stroke-linecap:square;stroke-opacity:0.3;stroke-width:0.8;"/>
     </g>
     <g id="line2d_26">
      <g>
       <use style="stroke:#000000;stroke-width:0.8;" x="378.991562" xlink:href="#mc53c407fd4" y="382.7575"/>
      </g>
     </g>
     <g id="text_13">
      <!-- 12 -->
      <g transform="translate(372.629062 397.355937)scale(0.1 -0.1)">
       <use xlink:href="#DejaVuSans-31"/>
       <use x="63.623047" xlink:href="#DejaVuSans-32"/>
      </g>
     </g>
    </g>
    <g id="xtick_14">
     <g id="line2d_27">
      <path clip-path="url(#p132d557168)" d="M 405.945075 382.7575 
L 405.945075 39.3575 
" style="fill:none;stroke:#b0b0b0;stroke-linecap:square;stroke-opacity:0.3;stroke-width:0.8;"/>
     </g>
     <g id="line2d_28">
      <g>
       <use style="stroke:#000000;stroke-width:0.8;" x="405.945075" xlink:href="#mc53c407fd4" y="382.7575"/>
      </g>
     </g>
     <g id="text_14">
      <!-- 13 -->
      <g transform="translate(399.582575 397.355937)scale(0.1 -0.1)">
       <use xlink:href="#DejaVuSans-31"/>
       <use x="63.623047" xlink:href="#DejaVuSans-33"/>
      </g>
     </g>
    </g>
    <g id="xtick_15">
     <g id="line2d_29">
      <path clip-path="url(#p132d557168)" d="M 432.898587 382.7575 
L 432.898587 39.3575 
" style="fill:none;stroke:#b0b0b0;stroke-linecap:square;stroke-opacity:0.3;stroke-width:0.8;"/>
     </g>
     <g id="line2d_30">
      <g>
       <use style="stroke:#000000;stroke-width:0.8;" x="432.898587" xlink:href="#mc53c407fd4" y="382.7575"/>
      </g>
     </g>
     <g id="text_15">
      <!-- 14 -->
      <g transform="translate(426.536087 397.355937)scale(0.1 -0.1)">
       <use xlink:href="#DejaVuSans-31"/>
       <use x="63.623047" xlink:href="#DejaVuSans-34"/>
      </g>
     </g>
    </g>
    <g id="xtick_16">
     <g id="line2d_31">
      <path clip-path="url(#p132d557168)" d="M 459.8521 382.7575 
L 459.8521 39.3575 
" style="fill:none;stroke:#b0b0b0;stroke-linecap:square;stroke-opacity:0.3;stroke-width:0.8;"/>
     </g>
     <g id="line2d_32">
      <g>
       <use style="stroke:#000000;stroke-width:0.8;" x="459.8521" xlink:href="#mc53c407fd4" y="382.7575"/>
      </g>
     </g>
     <g id="text_16">
      <!-- 15 -->
      <g transform="translate(453.4896 397.355937)scale(0.1 -0.1)">
       <use xlink:href="#DejaVuSans-31"/>
       <use x="63.623047" xlink:href="#DejaVuSans-35"/>
      </g>
     </g>
    </g>
    <g id="xtick_17">
     <g id="line2d_33">
      <path clip-path="url(#p132d557168)" d="M 486.805612 382.7575 
L 486.805612 39.3575 
" style="fill:none;stroke:#b0b0b0;stroke-linecap:square;stroke-opacity:0.3;stroke-width:0.8;"/>
     </g>
     <g id="line2d_34">
      <g>
       <use style="stroke:#000000;stroke-width:0.8;" x="486.805612" xlink:href="#mc53c407fd4" y="382.7575"/>
      </g>
     </g>
     <g id="text_17">
      <!-- 16 -->
      <g transform="translate(480.443112 397.355937)scale(0.1 -0.1)">
       <use xlink:href="#DejaVuSans-31"/>
       <use x="63.623047" xlink:href="#DejaVuSans-36"/>
      </g>
     </g>
    </g>
    <g id="xtick_18">
     <g id="line2d_35">
      <path clip-path="url(#p132d557168)" d="M 513.759124 382.7575 
L 513.759124 39.3575 
" style="fill:none;stroke:#b0b0b0;stroke-linecap:square;stroke-opacity:0.3;stroke-width:0.8;"/>
     </g>
     <g id="line2d_36">
      <g>
       <use style="stroke:#000000;stroke-width:0.8;" x="513.759124" xlink:href="#mc53c407fd4" y="382.7575"/>
      </g>
     </g>
     <g id="text_18">
      <!-- 17 -->
      <g transform="translate(507.396624 397.355937)scale(0.1 -0.1)">
       <use xlink:href="#DejaVuSans-31"/>
       <use x="63.623047" xlink:href="#DejaVuSans-37"/>
      </g>
     </g>
    </g>
    <g id="xtick_19">
     <g id="line2d_37">
      <path clip-path="url(#p132d557168)" d="M 540.712637 382.7575 
L 540.712637 39.3575 
" style="fill:none;stroke:#b0b0b0;stroke-linecap:square;stroke-opacity:0.3;stroke-width:0.8;"/>
     </g>
     <g id="line2d_38">
      <g>
       <use style="stroke:#000000;stroke-width:0.8;" x="540.712637" xlink:href="#mc53c407fd4" y="382.7575"/>
      </g>
     </g>
     <g id="text_19">
      <!-- 18 -->
      <g transform="translate(534.350137 397.355937)scale(0.1 -0.1)">
       <use xlink:href="#DejaVuSans-31"/>
       <use x="63.623047" xlink:href="#DejaVuSans-38"/>
      </g>
     </g>
    </g>
    <g id="xtick_20">
     <g id="line2d_39">
      <path clip-path="url(#p132d557168)" d="M 567.666149 382.7575 
L 567.666149 39.3575 
" style="fill:none;stroke:#b0b0b0;stroke-linecap:square;stroke-opacity:0.3;stroke-width:0.8;"/>
     </g>
     <g id="line2d_40">
      <g>
       <use style="stroke:#000000;stroke-width:0.8;" x="567.666149" xlink:href="#mc53c407fd4" y="382.7575"/>
      </g>
     </g>
     <g id="text_20">
      <!-- 19 -->
      <g transform="translate(561.303649 397.355937)scale(0.1 -0.1)">
       <use xlink:href="#DejaVuSans-31"/>
       <use x="63.623047" xlink:href="#DejaVuSans-39"/>
      </g>
     </g>
    </g>
    <g id="xtick_21">
     <g id="line2d_41">
      <path clip-path="url(#p132d557168)" d="M 594.619662 382.7575 
L 594.619662 39.3575 
" style="fill:none;stroke:#b0b0b0;stroke-linecap:square;stroke-opacity:0.3;stroke-width:0.8;"/>
     </g>
     <g id="line2d_42">
      <g>
       <use style="stroke:#000000;stroke-width:0.8;" x="594.619662" xlink:href="#mc53c407fd4" y="382.7575"/>
      </g>
     </g>
     <g id="text_21">
      <!-- 20 -->
      <g transform="translate(588.257162 397.355937)scale(0.1 -0.1)">
       <use xlink:href="#DejaVuSans-32"/>
       <use x="63.623047" xlink:href="#DejaVuSans-30"/>
      </g>
     </g>
    </g>
    <g id="xtick_22">
     <g id="line2d_43">
      <path clip-path="url(#p132d557168)" d="M 621.573174 382.7575 
L 621.573174 39.3575 
" style="fill:none;stroke:#b0b0b0;stroke-linecap:square;stroke-opacity:0.3;stroke-width:0.8;"/>
     </g>
     <g id="line2d_44">
      <g>
       <use style="stroke:#000000;stroke-width:0.8;" x="621.573174" xlink:href="#mc53c407fd4" y="382.7575"/>
      </g>
     </g>
     <g id="text_22">
      <!-- 21 -->
      <g transform="translate(615.210674 397.355937)scale(0.1 -0.1)">
       <use xlink:href="#DejaVuSans-32"/>
       <use x="63.623047" xlink:href="#DejaVuSans-31"/>
      </g>
     </g>
    </g>
    <g id="xtick_23">
     <g id="line2d_45">
      <path clip-path="url(#p132d557168)" d="M 648.526686 382.7575 
L 648.526686 39.3575 
" style="fill:none;stroke:#b0b0b0;stroke-linecap:square;stroke-opacity:0.3;stroke-width:0.8;"/>
     </g>
     <g id="line2d_46">
      <g>
       <use style="stroke:#000000;stroke-width:0.8;" x="648.526686" xlink:href="#mc53c407fd4" y="382.7575"/>
      </g>
     </g>
     <g id="text_23">
      <!-- 22 -->
      <g transform="translate(642.164186 397.355937)scale(0.1 -0.1)">
       <use xlink:href="#DejaVuSans-32"/>
       <use x="63.623047" xlink:href="#DejaVuSans-32"/>
      </g>
     </g>
    </g>
    <g id="xtick_24">
     <g id="line2d_47">
      <path clip-path="url(#p132d557168)" d="M 675.480199 382.7575 
L 675.480199 39.3575 
" style="fill:none;stroke:#b0b0b0;stroke-linecap:square;stroke-opacity:0.3;stroke-width:0.8;"/>
     </g>
     <g id="line2d_48">
      <g>
       <use style="stroke:#000000;stroke-width:0.8;" x="675.480199" xlink:href="#mc53c407fd4" y="382.7575"/>
      </g>
     </g>
     <g id="text_24">
      <!-- 23 -->
      <g transform="translate(669.117699 397.355937)scale(0.1 -0.1)">
       <use xlink:href="#DejaVuSans-32"/>
       <use x="63.623047" xlink:href="#DejaVuSans-33"/>
      </g>
     </g>
    </g>
    <g id="text_25">
     <!-- Total Number of Insertions in Sample -->
     <g transform="translate(249.637031 414.073438)scale(0.14 -0.14)">
      <defs>
       <path d="M -19 4666 
L 3928 4666 
L 3928 4134 
L 2272 4134 
L 2272 0 
L 1638 0 
L 1638 4134 
L -19 4134 
L -19 4666 
z
" id="DejaVuSans-54" transform="scale(0.015625)"/>
       <path d="M 1959 3097 
Q 1497 3097 1228 2736 
Q 959 2375 959 1747 
Q 959 1119 1226 758 
Q 1494 397 1959 397 
Q 2419 397 2687 759 
Q 2956 1122 2956 1747 
Q 2956 2369 2687 2733 
Q 2419 3097 1959 3097 
z
M 1959 3584 
Q 2709 3584 3137 3096 
Q 3566 2609 3566 1747 
Q 3566 888 3137 398 
Q 2709 -91 1959 -91 
Q 1206 -91 779 398 
Q 353 888 353 1747 
Q 353 2609 779 3096 
Q 1206 3584 1959 3584 
z
" id="DejaVuSans-6f" transform="scale(0.015625)"/>
       <path d="M 1172 4494 
L 1172 3500 
L 2356 3500 
L 2356 3053 
L 1172 3053 
L 1172 1153 
Q 1172 725 1289 603 
Q 1406 481 1766 481 
L 2356 481 
L 2356 0 
L 1766 0 
Q 1100 0 847 248 
Q 594 497 594 1153 
L 594 3053 
L 172 3053 
L 172 3500 
L 594 3500 
L 594 4494 
L 1172 4494 
z
" id="DejaVuSans-74" transform="scale(0.015625)"/>
       <path d="M 2194 1759 
Q 1497 1759 1228 1600 
Q 959 1441 959 1056 
Q 959 750 1161 570 
Q 1363 391 1709 391 
Q 2188 391 2477 730 
Q 2766 1069 2766 1631 
L 2766 1759 
L 2194 1759 
z
M 3341 1997 
L 3341 0 
L 2766 0 
L 2766 531 
Q 2569 213 2275 61 
Q 1981 -91 1556 -91 
Q 1019 -91 701 211 
Q 384 513 384 1019 
Q 384 1609 779 1909 
Q 1175 2209 1959 2209 
L 2766 2209 
L 2766 2266 
Q 2766 2663 2505 2880 
Q 2244 3097 1772 3097 
Q 1472 3097 1187 3025 
Q 903 2953 641 2809 
L 641 3341 
Q 956 3463 1253 3523 
Q 1550 3584 1831 3584 
Q 2591 3584 2966 3190 
Q 3341 2797 3341 1997 
z
" id="DejaVuSans-61" transform="scale(0.015625)"/>
       <path d="M 603 4863 
L 1178 4863 
L 1178 0 
L 603 0 
L 603 4863 
z
" id="DejaVuSans-6c" transform="scale(0.015625)"/>
       <path id="DejaVuSans-20" transform="scale(0.015625)"/>
       <path d="M 628 4666 
L 1478 4666 
L 3547 763 
L 3547 4666 
L 4159 4666 
L 4159 0 
L 3309 0 
L 1241 3903 
L 1241 0 
L 628 0 
L 628 4666 
z
" id="DejaVuSans-4e" transform="scale(0.015625)"/>
       <path d="M 544 1381 
L 544 3500 
L 1119 3500 
L 1119 1403 
Q 1119 906 1312 657 
Q 1506 409 1894 409 
Q 2359 409 2629 706 
Q 2900 1003 2900 1516 
L 2900 3500 
L 3475 3500 
L 3475 0 
L 2900 0 
L 2900 538 
Q 2691 219 2414 64 
Q 2138 -91 1772 -91 
Q 1169 -91 856 284 
Q 544 659 544 1381 
z
M 1991 3584 
L 1991 3584 
z
" id="DejaVuSans-75" transform="scale(0.015625)"/>
       <path d="M 3328 2828 
Q 3544 3216 3844 3400 
Q 4144 3584 4550 3584 
Q 5097 3584 5394 3201 
Q 5691 2819 5691 2113 
L 5691 0 
L 5113 0 
L 5113 2094 
Q 5113 2597 4934 2840 
Q 4756 3084 4391 3084 
Q 3944 3084 3684 2787 
Q 3425 2491 3425 1978 
L 3425 0 
L 2847 0 
L 2847 2094 
Q 2847 2600 2669 2842 
Q 2491 3084 2119 3084 
Q 1678 3084 1418 2786 
Q 1159 2488 1159 1978 
L 1159 0 
L 581 0 
L 581 3500 
L 1159 3500 
L 1159 2956 
Q 1356 3278 1631 3431 
Q 1906 3584 2284 3584 
Q 2666 3584 2933 3390 
Q 3200 3197 3328 2828 
z
" id="DejaVuSans-6d" transform="scale(0.015625)"/>
       <path d="M 3116 1747 
Q 3116 2381 2855 2742 
Q 2594 3103 2138 3103 
Q 1681 3103 1420 2742 
Q 1159 2381 1159 1747 
Q 1159 1113 1420 752 
Q 1681 391 2138 391 
Q 2594 391 2855 752 
Q 3116 1113 3116 1747 
z
M 1159 2969 
Q 1341 3281 1617 3432 
Q 1894 3584 2278 3584 
Q 2916 3584 3314 3078 
Q 3713 2572 3713 1747 
Q 3713 922 3314 415 
Q 2916 -91 2278 -91 
Q 1894 -91 1617 61 
Q 1341 213 1159 525 
L 1159 0 
L 581 0 
L 581 4863 
L 1159 4863 
L 1159 2969 
z
" id="DejaVuSans-62" transform="scale(0.015625)"/>
       <path d="M 3597 1894 
L 3597 1613 
L 953 1613 
Q 991 1019 1311 708 
Q 1631 397 2203 397 
Q 2534 397 2845 478 
Q 3156 559 3463 722 
L 3463 178 
Q 3153 47 2828 -22 
Q 2503 -91 2169 -91 
Q 1331 -91 842 396 
Q 353 884 353 1716 
Q 353 2575 817 3079 
Q 1281 3584 2069 3584 
Q 2775 3584 3186 3129 
Q 3597 2675 3597 1894 
z
M 3022 2063 
Q 3016 2534 2758 2815 
Q 2500 3097 2075 3097 
Q 1594 3097 1305 2825 
Q 1016 2553 972 2059 
L 3022 2063 
z
" id="DejaVuSans-65" transform="scale(0.015625)"/>
       <path d="M 2631 2963 
Q 2534 3019 2420 3045 
Q 2306 3072 2169 3072 
Q 1681 3072 1420 2755 
Q 1159 2438 1159 1844 
L 1159 0 
L 581 0 
L 581 3500 
L 1159 3500 
L 1159 2956 
Q 1341 3275 1631 3429 
Q 1922 3584 2338 3584 
Q 2397 3584 2469 3576 
Q 2541 3569 2628 3553 
L 2631 2963 
z
" id="DejaVuSans-72" transform="scale(0.015625)"/>
       <path d="M 2375 4863 
L 2375 4384 
L 1825 4384 
Q 1516 4384 1395 4259 
Q 1275 4134 1275 3809 
L 1275 3500 
L 2222 3500 
L 2222 3053 
L 1275 3053 
L 1275 0 
L 697 0 
L 697 3053 
L 147 3053 
L 147 3500 
L 697 3500 
L 697 3744 
Q 697 4328 969 4595 
Q 1241 4863 1831 4863 
L 2375 4863 
z
" id="DejaVuSans-66" transform="scale(0.015625)"/>
       <path d="M 628 4666 
L 1259 4666 
L 1259 0 
L 628 0 
L 628 4666 
z
" id="DejaVuSans-49" transform="scale(0.015625)"/>
       <path d="M 3513 2113 
L 3513 0 
L 2938 0 
L 2938 2094 
Q 2938 2591 2744 2837 
Q 2550 3084 2163 3084 
Q 1697 3084 1428 2787 
Q 1159 2491 1159 1978 
L 1159 0 
L 581 0 
L 581 3500 
L 1159 3500 
L 1159 2956 
Q 1366 3272 1645 3428 
Q 1925 3584 2291 3584 
Q 2894 3584 3203 3211 
Q 3513 2838 3513 2113 
z
" id="DejaVuSans-6e" transform="scale(0.015625)"/>
       <path d="M 2834 3397 
L 2834 2853 
Q 2591 2978 2328 3040 
Q 2066 3103 1784 3103 
Q 1356 3103 1142 2972 
Q 928 2841 928 2578 
Q 928 2378 1081 2264 
Q 1234 2150 1697 2047 
L 1894 2003 
Q 2506 1872 2764 1633 
Q 3022 1394 3022 966 
Q 3022 478 2636 193 
Q 2250 -91 1575 -91 
Q 1294 -91 989 -36 
Q 684 19 347 128 
L 347 722 
Q 666 556 975 473 
Q 1284 391 1588 391 
Q 1994 391 2212 530 
Q 2431 669 2431 922 
Q 2431 1156 2273 1281 
Q 2116 1406 1581 1522 
L 1381 1569 
Q 847 1681 609 1914 
Q 372 2147 372 2553 
Q 372 3047 722 3315 
Q 1072 3584 1716 3584 
Q 2034 3584 2315 3537 
Q 2597 3491 2834 3397 
z
" id="DejaVuSans-73" transform="scale(0.015625)"/>
       <path d="M 603 3500 
L 1178 3500 
L 1178 0 
L 603 0 
L 603 3500 
z
M 603 4863 
L 1178 4863 
L 1178 4134 
L 603 4134 
L 603 4863 
z
" id="DejaVuSans-69" transform="scale(0.015625)"/>
       <path d="M 3425 4513 
L 3425 3897 
Q 3066 4069 2747 4153 
Q 2428 4238 2131 4238 
Q 1616 4238 1336 4038 
Q 1056 3838 1056 3469 
Q 1056 3159 1242 3001 
Q 1428 2844 1947 2747 
L 2328 2669 
Q 3034 2534 3370 2195 
Q 3706 1856 3706 1288 
Q 3706 609 3251 259 
Q 2797 -91 1919 -91 
Q 1588 -91 1214 -16 
Q 841 59 441 206 
L 441 856 
Q 825 641 1194 531 
Q 1563 422 1919 422 
Q 2459 422 2753 634 
Q 3047 847 3047 1241 
Q 3047 1584 2836 1778 
Q 2625 1972 2144 2069 
L 1759 2144 
Q 1053 2284 737 2584 
Q 422 2884 422 3419 
Q 422 4038 858 4394 
Q 1294 4750 2059 4750 
Q 2388 4750 2728 4690 
Q 3069 4631 3425 4513 
z
" id="DejaVuSans-53" transform="scale(0.015625)"/>
       <path d="M 1159 525 
L 1159 -1331 
L 581 -1331 
L 581 3500 
L 1159 3500 
L 1159 2969 
Q 1341 3281 1617 3432 
Q 1894 3584 2278 3584 
Q 2916 3584 3314 3078 
Q 3713 2572 3713 1747 
Q 3713 922 3314 415 
Q 2916 -91 2278 -91 
Q 1894 -91 1617 61 
Q 1341 213 1159 525 
z
M 3116 1747 
Q 3116 2381 2855 2742 
Q 2594 3103 2138 3103 
Q 1681 3103 1420 2742 
Q 1159 2381 1159 1747 
Q 1159 1113 1420 752 
Q 1681 391 2138 391 
Q 2594 391 2855 752 
Q 3116 1113 3116 1747 
z
" id="DejaVuSans-70" transform="scale(0.015625)"/>
      </defs>
      <use xlink:href="#DejaVuSans-54"/>
      <use x="44.083984" xlink:href="#DejaVuSans-6f"/>
      <use x="105.265625" xlink:href="#DejaVuSans-74"/>
      <use x="144.474609" xlink:href="#DejaVuSans-61"/>
      <use x="205.753906" xlink:href="#DejaVuSans-6c"/>
      <use x="233.537109" xlink:href="#DejaVuSans-20"/>
      <use x="265.324219" xlink:href="#DejaVuSans-4e"/>
      <use x="340.128906" xlink:href="#DejaVuSans-75"/>
      <use x="403.507812" xlink:href="#DejaVuSans-6d"/>
      <use x="500.919922" xlink:href="#DejaVuSans-62"/>
      <use x="564.396484" xlink:href="#DejaVuSans-65"/>
      <use x="625.919922" xlink:href="#DejaVuSans-72"/>
      <use x="667.033203" xlink:href="#DejaVuSans-20"/>
      <use x="698.820312" xlink:href="#DejaVuSans-6f"/>
      <use x="760.001953" xlink:href="#DejaVuSans-66"/>
      <use x="795.207031" xlink:href="#DejaVuSans-20"/>
      <use x="826.994141" xlink:href="#DejaVuSans-49"/>
      <use x="856.486328" xlink:href="#DejaVuSans-6e"/>
      <use x="919.865234" xlink:href="#DejaVuSans-73"/>
      <use x="971.964844" xlink:href="#DejaVuSans-65"/>
      <use x="1033.488281" xlink:href="#DejaVuSans-72"/>
      <use x="1074.601562" xlink:href="#DejaVuSans-74"/>
      <use x="1113.810547" xlink:href="#DejaVuSans-69"/>
      <use x="1141.59375" xlink:href="#DejaVuSans-6f"/>
      <use x="1202.775391" xlink:href="#DejaVuSans-6e"/>
      <use x="1266.154297" xlink:href="#DejaVuSans-73"/>
      <use x="1318.253906" xlink:href="#DejaVuSans-20"/>
      <use x="1350.041016" xlink:href="#DejaVuSans-69"/>
      <use x="1377.824219" xlink:href="#DejaVuSans-6e"/>
      <use x="1441.203125" xlink:href="#DejaVuSans-20"/>
      <use x="1472.990234" xlink:href="#DejaVuSans-53"/>
      <use x="1536.466797" xlink:href="#DejaVuSans-61"/>
      <use x="1597.746094" xlink:href="#DejaVuSans-6d"/>
      <use x="1695.158203" xlink:href="#DejaVuSans-70"/>
      <use x="1758.634766" xlink:href="#DejaVuSans-6c"/>
      <use x="1786.417969" xlink:href="#DejaVuSans-65"/>
     </g>
    </g>
   </g>
   <g id="matplotlib.axis_2">
    <g id="ytick_1">
     <g id="line2d_49">
      <path clip-path="url(#p132d557168)" d="M 52.854063 351.052489 
L 705.129063 351.052489 
" style="fill:none;stroke:#b0b0b0;stroke-linecap:square;stroke-opacity:0.3;stroke-width:0.8;"/>
     </g>
     <g id="line2d_50">
      <defs>
       <path d="M 0 0 
L -3.5 0 
" id="m166cd31078" style="stroke:#000000;stroke-width:0.8;"/>
      </defs>
      <g>
       <use style="stroke:#000000;stroke-width:0.8;" x="52.854063" xlink:href="#m166cd31078" y="351.052489"/>
      </g>
     </g>
     <g id="text_26">
      <!-- 20 -->
      <g transform="translate(24.749375 354.851708)scale(0.1 -0.1)">
       <defs>
        <path d="M 678 2272 
L 4684 2272 
L 4684 1741 
L 678 1741 
L 678 2272 
z
" id="DejaVuSans-2212" transform="scale(0.015625)"/>
       </defs>
       <use xlink:href="#DejaVuSans-2212"/>
       <use x="83.789062" xlink:href="#DejaVuSans-32"/>
       <use x="147.412109" xlink:href="#DejaVuSans-30"/>
      </g>
     </g>
    </g>
    <g id="ytick_2">
     <g id="line2d_51">
      <path clip-path="url(#p132d557168)" d="M 52.854063 312.010819 
L 705.129063 312.010819 
" style="fill:none;stroke:#b0b0b0;stroke-linecap:square;stroke-opacity:0.3;stroke-width:0.8;"/>
     </g>
     <g id="line2d_52">
      <g>
       <use style="stroke:#000000;stroke-width:0.8;" x="52.854063" xlink:href="#m166cd31078" y="312.010819"/>
      </g>
     </g>
     <g id="text_27">
      <!-- 10 -->
      <g transform="translate(24.749375 315.810038)scale(0.1 -0.1)">
       <use xlink:href="#DejaVuSans-2212"/>
       <use x="83.789062" xlink:href="#DejaVuSans-31"/>
       <use x="147.412109" xlink:href="#DejaVuSans-30"/>
      </g>
     </g>
    </g>
    <g id="ytick_3">
     <g id="line2d_53">
      <path clip-path="url(#p132d557168)" d="M 52.854063 272.969149 
L 705.129063 272.969149 
" style="fill:none;stroke:#b0b0b0;stroke-linecap:square;stroke-opacity:0.3;stroke-width:0.8;"/>
     </g>
     <g id="line2d_54">
      <g>
       <use style="stroke:#000000;stroke-width:0.8;" x="52.854063" xlink:href="#m166cd31078" y="272.969149"/>
      </g>
     </g>
     <g id="text_28">
      <!-- 0 -->
      <g transform="translate(39.491563 276.768368)scale(0.1 -0.1)">
       <use xlink:href="#DejaVuSans-30"/>
      </g>
     </g>
    </g>
    <g id="ytick_4">
     <g id="line2d_55">
      <path clip-path="url(#p132d557168)" d="M 52.854063 233.927479 
L 705.129063 233.927479 
" style="fill:none;stroke:#b0b0b0;stroke-linecap:square;stroke-opacity:0.3;stroke-width:0.8;"/>
     </g>
     <g id="line2d_56">
      <g>
       <use style="stroke:#000000;stroke-width:0.8;" x="52.854063" xlink:href="#m166cd31078" y="233.927479"/>
      </g>
     </g>
     <g id="text_29">
      <!-- 10 -->
      <g transform="translate(33.129063 237.726698)scale(0.1 -0.1)">
       <use xlink:href="#DejaVuSans-31"/>
       <use x="63.623047" xlink:href="#DejaVuSans-30"/>
      </g>
     </g>
    </g>
    <g id="ytick_5">
     <g id="line2d_57">
      <path clip-path="url(#p132d557168)" d="M 52.854063 194.885809 
L 705.129063 194.885809 
" style="fill:none;stroke:#b0b0b0;stroke-linecap:square;stroke-opacity:0.3;stroke-width:0.8;"/>
     </g>
     <g id="line2d_58">
      <g>
       <use style="stroke:#000000;stroke-width:0.8;" x="52.854063" xlink:href="#m166cd31078" y="194.885809"/>
      </g>
     </g>
     <g id="text_30">
      <!-- 20 -->
      <g transform="translate(33.129063 198.685028)scale(0.1 -0.1)">
       <use xlink:href="#DejaVuSans-32"/>
       <use x="63.623047" xlink:href="#DejaVuSans-30"/>
      </g>
     </g>
    </g>
    <g id="ytick_6">
     <g id="line2d_59">
      <path clip-path="url(#p132d557168)" d="M 52.854063 155.844139 
L 705.129063 155.844139 
" style="fill:none;stroke:#b0b0b0;stroke-linecap:square;stroke-opacity:0.3;stroke-width:0.8;"/>
     </g>
     <g id="line2d_60">
      <g>
       <use style="stroke:#000000;stroke-width:0.8;" x="52.854063" xlink:href="#m166cd31078" y="155.844139"/>
      </g>
     </g>
     <g id="text_31">
      <!-- 30 -->
      <g transform="translate(33.129063 159.643358)scale(0.1 -0.1)">
       <use xlink:href="#DejaVuSans-33"/>
       <use x="63.623047" xlink:href="#DejaVuSans-30"/>
      </g>
     </g>
    </g>
    <g id="ytick_7">
     <g id="line2d_61">
      <path clip-path="url(#p132d557168)" d="M 52.854063 116.802469 
L 705.129063 116.802469 
" style="fill:none;stroke:#b0b0b0;stroke-linecap:square;stroke-opacity:0.3;stroke-width:0.8;"/>
     </g>
     <g id="line2d_62">
      <g>
       <use style="stroke:#000000;stroke-width:0.8;" x="52.854063" xlink:href="#m166cd31078" y="116.802469"/>
      </g>
     </g>
     <g id="text_32">
      <!-- 40 -->
      <g transform="translate(33.129063 120.601688)scale(0.1 -0.1)">
       <use xlink:href="#DejaVuSans-34"/>
       <use x="63.623047" xlink:href="#DejaVuSans-30"/>
      </g>
     </g>
    </g>
    <g id="ytick_8">
     <g id="line2d_63">
      <path clip-path="url(#p132d557168)" d="M 52.854063 77.760799 
L 705.129063 77.760799 
" style="fill:none;stroke:#b0b0b0;stroke-linecap:square;stroke-opacity:0.3;stroke-width:0.8;"/>
     </g>
     <g id="line2d_64">
      <g>
       <use style="stroke:#000000;stroke-width:0.8;" x="52.854063" xlink:href="#m166cd31078" y="77.760799"/>
      </g>
     </g>
     <g id="text_33">
      <!-- 50 -->
      <g transform="translate(33.129063 81.560018)scale(0.1 -0.1)">
       <use xlink:href="#DejaVuSans-35"/>
       <use x="63.623047" xlink:href="#DejaVuSans-30"/>
      </g>
     </g>
    </g>
    <g id="text_34">
     <!-- Median ONSEN Methylation Difference (vs Col-0) -->
     <g transform="translate(17.837812 381.343438)rotate(-90)scale(0.14 -0.14)">
      <defs>
       <path d="M 628 4666 
L 1569 4666 
L 2759 1491 
L 3956 4666 
L 4897 4666 
L 4897 0 
L 4281 0 
L 4281 4097 
L 3078 897 
L 2444 897 
L 1241 4097 
L 1241 0 
L 628 0 
L 628 4666 
z
" id="DejaVuSans-4d" transform="scale(0.015625)"/>
       <path d="M 2906 2969 
L 2906 4863 
L 3481 4863 
L 3481 0 
L 2906 0 
L 2906 525 
Q 2725 213 2448 61 
Q 2172 -91 1784 -91 
Q 1150 -91 751 415 
Q 353 922 353 1747 
Q 353 2572 751 3078 
Q 1150 3584 1784 3584 
Q 2172 3584 2448 3432 
Q 2725 3281 2906 2969 
z
M 947 1747 
Q 947 1113 1208 752 
Q 1469 391 1925 391 
Q 2381 391 2643 752 
Q 2906 1113 2906 1747 
Q 2906 2381 2643 2742 
Q 2381 3103 1925 3103 
Q 1469 3103 1208 2742 
Q 947 2381 947 1747 
z
" id="DejaVuSans-64" transform="scale(0.015625)"/>
       <path d="M 2522 4238 
Q 1834 4238 1429 3725 
Q 1025 3213 1025 2328 
Q 1025 1447 1429 934 
Q 1834 422 2522 422 
Q 3209 422 3611 934 
Q 4013 1447 4013 2328 
Q 4013 3213 3611 3725 
Q 3209 4238 2522 4238 
z
M 2522 4750 
Q 3503 4750 4090 4092 
Q 4678 3434 4678 2328 
Q 4678 1225 4090 567 
Q 3503 -91 2522 -91 
Q 1538 -91 948 565 
Q 359 1222 359 2328 
Q 359 3434 948 4092 
Q 1538 4750 2522 4750 
z
" id="DejaVuSans-4f" transform="scale(0.015625)"/>
       <path d="M 628 4666 
L 3578 4666 
L 3578 4134 
L 1259 4134 
L 1259 2753 
L 3481 2753 
L 3481 2222 
L 1259 2222 
L 1259 531 
L 3634 531 
L 3634 0 
L 628 0 
L 628 4666 
z
" id="DejaVuSans-45" transform="scale(0.015625)"/>
       <path d="M 3513 2113 
L 3513 0 
L 2938 0 
L 2938 2094 
Q 2938 2591 2744 2837 
Q 2550 3084 2163 3084 
Q 1697 3084 1428 2787 
Q 1159 2491 1159 1978 
L 1159 0 
L 581 0 
L 581 4863 
L 1159 4863 
L 1159 2956 
Q 1366 3272 1645 3428 
Q 1925 3584 2291 3584 
Q 2894 3584 3203 3211 
Q 3513 2838 3513 2113 
z
" id="DejaVuSans-68" transform="scale(0.015625)"/>
       <path d="M 2059 -325 
Q 1816 -950 1584 -1140 
Q 1353 -1331 966 -1331 
L 506 -1331 
L 506 -850 
L 844 -850 
Q 1081 -850 1212 -737 
Q 1344 -625 1503 -206 
L 1606 56 
L 191 3500 
L 800 3500 
L 1894 763 
L 2988 3500 
L 3597 3500 
L 2059 -325 
z
" id="DejaVuSans-79" transform="scale(0.015625)"/>
       <path d="M 1259 4147 
L 1259 519 
L 2022 519 
Q 2988 519 3436 956 
Q 3884 1394 3884 2338 
Q 3884 3275 3436 3711 
Q 2988 4147 2022 4147 
L 1259 4147 
z
M 628 4666 
L 1925 4666 
Q 3281 4666 3915 4102 
Q 4550 3538 4550 2338 
Q 4550 1131 3912 565 
Q 3275 0 1925 0 
L 628 0 
L 628 4666 
z
" id="DejaVuSans-44" transform="scale(0.015625)"/>
       <path d="M 3122 3366 
L 3122 2828 
Q 2878 2963 2633 3030 
Q 2388 3097 2138 3097 
Q 1578 3097 1268 2742 
Q 959 2388 959 1747 
Q 959 1106 1268 751 
Q 1578 397 2138 397 
Q 2388 397 2633 464 
Q 2878 531 3122 666 
L 3122 134 
Q 2881 22 2623 -34 
Q 2366 -91 2075 -91 
Q 1284 -91 818 406 
Q 353 903 353 1747 
Q 353 2603 823 3093 
Q 1294 3584 2113 3584 
Q 2378 3584 2631 3529 
Q 2884 3475 3122 3366 
z
" id="DejaVuSans-63" transform="scale(0.015625)"/>
       <path d="M 1984 4856 
Q 1566 4138 1362 3434 
Q 1159 2731 1159 2009 
Q 1159 1288 1364 580 
Q 1569 -128 1984 -844 
L 1484 -844 
Q 1016 -109 783 600 
Q 550 1309 550 2009 
Q 550 2706 781 3412 
Q 1013 4119 1484 4856 
L 1984 4856 
z
" id="DejaVuSans-28" transform="scale(0.015625)"/>
       <path d="M 191 3500 
L 800 3500 
L 1894 563 
L 2988 3500 
L 3597 3500 
L 2284 0 
L 1503 0 
L 191 3500 
z
" id="DejaVuSans-76" transform="scale(0.015625)"/>
       <path d="M 4122 4306 
L 4122 3641 
Q 3803 3938 3442 4084 
Q 3081 4231 2675 4231 
Q 1875 4231 1450 3742 
Q 1025 3253 1025 2328 
Q 1025 1406 1450 917 
Q 1875 428 2675 428 
Q 3081 428 3442 575 
Q 3803 722 4122 1019 
L 4122 359 
Q 3791 134 3420 21 
Q 3050 -91 2638 -91 
Q 1578 -91 968 557 
Q 359 1206 359 2328 
Q 359 3453 968 4101 
Q 1578 4750 2638 4750 
Q 3056 4750 3426 4639 
Q 3797 4528 4122 4306 
z
" id="DejaVuSans-43" transform="scale(0.015625)"/>
       <path d="M 313 2009 
L 1997 2009 
L 1997 1497 
L 313 1497 
L 313 2009 
z
" id="DejaVuSans-2d" transform="scale(0.015625)"/>
       <path d="M 513 4856 
L 1013 4856 
Q 1481 4119 1714 3412 
Q 1947 2706 1947 2009 
Q 1947 1309 1714 600 
Q 1481 -109 1013 -844 
L 513 -844 
Q 928 -128 1133 580 
Q 1338 1288 1338 2009 
Q 1338 2731 1133 3434 
Q 928 4138 513 4856 
z
" id="DejaVuSans-29" transform="scale(0.015625)"/>
      </defs>
      <use xlink:href="#DejaVuSans-4d"/>
      <use x="86.279297" xlink:href="#DejaVuSans-65"/>
      <use x="147.802734" xlink:href="#DejaVuSans-64"/>
      <use x="211.279297" xlink:href="#DejaVuSans-69"/>
      <use x="239.0625" xlink:href="#DejaVuSans-61"/>
      <use x="300.341797" xlink:href="#DejaVuSans-6e"/>
      <use x="363.720703" xlink:href="#DejaVuSans-20"/>
      <use x="395.507812" xlink:href="#DejaVuSans-4f"/>
      <use x="474.21875" xlink:href="#DejaVuSans-4e"/>
      <use x="549.023438" xlink:href="#DejaVuSans-53"/>
      <use x="612.5" xlink:href="#DejaVuSans-45"/>
      <use x="675.683594" xlink:href="#DejaVuSans-4e"/>
      <use x="750.488281" xlink:href="#DejaVuSans-20"/>
      <use x="782.275391" xlink:href="#DejaVuSans-4d"/>
      <use x="868.554688" xlink:href="#DejaVuSans-65"/>
      <use x="930.078125" xlink:href="#DejaVuSans-74"/>
      <use x="969.287109" xlink:href="#DejaVuSans-68"/>
      <use x="1032.666016" xlink:href="#DejaVuSans-79"/>
      <use x="1091.845703" xlink:href="#DejaVuSans-6c"/>
      <use x="1119.628906" xlink:href="#DejaVuSans-61"/>
      <use x="1180.908203" xlink:href="#DejaVuSans-74"/>
      <use x="1220.117188" xlink:href="#DejaVuSans-69"/>
      <use x="1247.900391" xlink:href="#DejaVuSans-6f"/>
      <use x="1309.082031" xlink:href="#DejaVuSans-6e"/>
      <use x="1372.460938" xlink:href="#DejaVuSans-20"/>
      <use x="1404.248047" xlink:href="#DejaVuSans-44"/>
      <use x="1481.25" xlink:href="#DejaVuSans-69"/>
      <use x="1509.033203" xlink:href="#DejaVuSans-66"/>
      <use x="1544.238281" xlink:href="#DejaVuSans-66"/>
      <use x="1579.443359" xlink:href="#DejaVuSans-65"/>
      <use x="1640.966797" xlink:href="#DejaVuSans-72"/>
      <use x="1679.830078" xlink:href="#DejaVuSans-65"/>
      <use x="1741.353516" xlink:href="#DejaVuSans-6e"/>
      <use x="1804.732422" xlink:href="#DejaVuSans-63"/>
      <use x="1859.712891" xlink:href="#DejaVuSans-65"/>
      <use x="1921.236328" xlink:href="#DejaVuSans-20"/>
      <use x="1953.023438" xlink:href="#DejaVuSans-28"/>
      <use x="1992.037109" xlink:href="#DejaVuSans-76"/>
      <use x="2051.216797" xlink:href="#DejaVuSans-73"/>
      <use x="2103.316406" xlink:href="#DejaVuSans-20"/>
      <use x="2135.103516" xlink:href="#DejaVuSans-43"/>
      <use x="2204.927734" xlink:href="#DejaVuSans-6f"/>
      <use x="2266.109375" xlink:href="#DejaVuSans-6c"/>
      <use x="2293.892578" xlink:href="#DejaVuSans-2d"/>
      <use x="2329.976562" xlink:href="#DejaVuSans-30"/>
      <use x="2393.599609" xlink:href="#DejaVuSans-29"/>
     </g>
    </g>
   </g>
   <g id="line2d_65">
    <path clip-path="url(#p132d557168)" d="M 82.502926 280.713591 
L 88.492596 280.913372 
L 94.482265 281.113153 
L 100.471934 281.312935 
L 106.461604 281.512716 
L 112.451273 281.712497 
L 118.440943 281.912279 
L 124.430612 282.11206 
L 130.420282 282.311841 
L 136.409951 282.511623 
L 142.39962 282.711404 
L 148.38929 282.911185 
L 154.378959 283.110966 
L 160.368629 283.310748 
L 166.358298 283.510529 
L 172.347967 283.71031 
L 178.337637 283.910092 
L 184.327306 284.109873 
L 190.316976 284.309654 
L 196.306645 284.509436 
L 202.296315 284.709217 
L 208.285984 284.908998 
L 214.275653 285.10878 
L 220.265323 285.308561 
L 226.254992 285.508342 
L 232.244662 285.708123 
L 238.234331 285.907905 
L 244.224001 286.107686 
L 250.21367 286.307467 
L 256.203339 286.507249 
L 262.193009 286.70703 
L 268.182678 286.906811 
L 274.172348 287.106593 
L 280.162017 287.306374 
L 286.151686 287.506155 
L 292.141356 287.705937 
L 298.131025 287.905718 
L 304.120695 288.105499 
L 310.110364 288.30528 
L 316.100034 288.505062 
L 322.089703 288.704843 
L 328.079372 288.904624 
L 334.069042 289.104406 
L 340.058711 289.304187 
L 346.048381 289.503968 
L 352.03805 289.70375 
L 358.02772 289.903531 
L 364.017389 290.103312 
L 370.007058 290.303094 
L 375.996728 290.502875 
L 381.986397 290.702656 
L 387.976067 290.902437 
L 393.965736 291.102219 
L 399.955405 291.302 
L 405.945075 291.501781 
L 411.934744 291.701563 
L 417.924414 291.901344 
L 423.914083 292.101125 
L 429.903753 292.300907 
L 435.893422 292.500688 
L 441.883091 292.700469 
L 447.872761 292.900251 
L 453.86243 293.100032 
L 459.8521 293.299813 
L 465.841769 293.499594 
L 471.831439 293.699376 
L 477.821108 293.899157 
L 483.810777 294.098938 
L 489.800447 294.29872 
L 495.790116 294.498501 
L 501.779786 294.698282 
L 507.769455 294.898064 
L 513.759124 295.097845 
L 519.748794 295.297626 
L 525.738463 295.497408 
L 531.728133 295.697189 
L 537.717802 295.89697 
L 543.707472 296.096751 
L 549.697141 296.296533 
L 555.68681 296.496314 
L 561.67648 296.696095 
L 567.666149 296.895877 
L 573.655819 297.095658 
L 579.645488 297.295439 
L 585.635158 297.495221 
L 591.624827 297.695002 
L 597.614496 297.894783 
L 603.604166 298.094565 
L 609.593835 298.294346 
L 615.583505 298.494127 
L 621.573174 298.693908 
L 627.562843 298.89369 
L 633.552513 299.093471 
L 639.542182 299.293252 
L 645.531852 299.493034 
L 651.521521 299.692815 
L 657.511191 299.892596 
L 663.50086 300.092378 
L 669.490529 300.292159 
L 675.480199 300.49194 
" style="fill:none;stroke:#01c19e;stroke-linecap:square;stroke-width:2.25;"/>
   </g>
   <g id="line2d_66">
    <path clip-path="url(#p132d557168)" d="M 82.502926 269.41859 
L 88.492596 269.489537 
L 94.482265 269.560483 
L 100.471934 269.63143 
L 106.461604 269.702376 
L 112.451273 269.773323 
L 118.440943 269.84427 
L 124.430612 269.915216 
L 130.420282 269.986163 
L 136.409951 270.057109 
L 142.39962 270.128056 
L 148.38929 270.199002 
L 154.378959 270.269949 
L 160.368629 270.340895 
L 166.358298 270.411842 
L 172.347967 270.482788 
L 178.337637 270.553735 
L 184.327306 270.624681 
L 190.316976 270.695628 
L 196.306645 270.766574 
L 202.296315 270.837521 
L 208.285984 270.908467 
L 214.275653 270.979414 
L 220.265323 271.050361 
L 226.254992 271.121307 
L 232.244662 271.192254 
L 238.234331 271.2632 
L 244.224001 271.334147 
L 250.21367 271.405093 
L 256.203339 271.47604 
L 262.193009 271.546986 
L 268.182678 271.617933 
L 274.172348 271.688879 
L 280.162017 271.759826 
L 286.151686 271.830772 
L 292.141356 271.901719 
L 298.131025 271.972665 
L 304.120695 272.043612 
L 310.110364 272.114559 
L 316.100034 272.185505 
L 322.089703 272.256452 
L 328.079372 272.327398 
L 334.069042 272.398345 
L 340.058711 272.469291 
L 346.048381 272.540238 
L 352.03805 272.611184 
L 358.02772 272.682131 
L 364.017389 272.753077 
L 370.007058 272.824024 
L 375.996728 272.89497 
L 381.986397 272.965917 
L 387.976067 273.036863 
L 393.965736 273.10781 
L 399.955405 273.178756 
L 405.945075 273.249703 
L 411.934744 273.32065 
L 417.924414 273.391596 
L 423.914083 273.462543 
L 429.903753 273.533489 
L 435.893422 273.604436 
L 441.883091 273.675382 
L 447.872761 273.746329 
L 453.86243 273.817275 
L 459.8521 273.888222 
L 465.841769 273.959168 
L 471.831439 274.030115 
L 477.821108 274.101061 
L 483.810777 274.172008 
L 489.800447 274.242954 
L 495.790116 274.313901 
L 501.779786 274.384848 
L 507.769455 274.455794 
L 513.759124 274.526741 
L 519.748794 274.597687 
L 525.738463 274.668634 
L 531.728133 274.73958 
L 537.717802 274.810527 
L 543.707472 274.881473 
L 549.697141 274.95242 
L 555.68681 275.023366 
L 561.67648 275.094313 
L 567.666149 275.165259 
L 573.655819 275.236206 
L 579.645488 275.307152 
L 585.635158 275.378099 
L 591.624827 275.449045 
L 597.614496 275.519992 
L 603.604166 275.590939 
L 609.593835 275.661885 
L 615.583505 275.732832 
L 621.573174 275.803778 
L 627.562843 275.874725 
L 633.552513 275.945671 
L 639.542182 276.016618 
L 645.531852 276.087564 
L 651.521521 276.158511 
L 657.511191 276.229457 
L 663.50086 276.300404 
L 669.490529 276.37135 
L 675.480199 276.442297 
" style="fill:none;stroke:#6b8ae0;stroke-linecap:square;stroke-width:2.25;"/>
   </g>
   <g id="line2d_67">
    <path clip-path="url(#p132d557168)" d="M 82.502926 262.877657 
L 88.492596 262.993658 
L 94.482265 263.109658 
L 100.471934 263.225659 
L 106.461604 263.341659 
L 112.451273 263.45766 
L 118.440943 263.573661 
L 124.430612 263.689661 
L 130.420282 263.805662 
L 136.409951 263.921663 
L 142.39962 264.037663 
L 148.38929 264.153664 
L 154.378959 264.269664 
L 160.368629 264.385665 
L 166.358298 264.501666 
L 172.347967 264.617666 
L 178.337637 264.733667 
L 184.327306 264.849668 
L 190.316976 264.965668 
L 196.306645 265.081669 
L 202.296315 265.197669 
L 208.285984 265.31367 
L 214.275653 265.429671 
L 220.265323 265.545671 
L 226.254992 265.661672 
L 232.244662 265.777672 
L 238.234331 265.893673 
L 244.224001 266.009674 
L 250.21367 266.125674 
L 256.203339 266.241675 
L 262.193009 266.357676 
L 268.182678 266.473676 
L 274.172348 266.589677 
L 280.162017 266.705677 
L 286.151686 266.821678 
L 292.141356 266.937679 
L 298.131025 267.053679 
L 304.120695 267.16968 
L 310.110364 267.285681 
L 316.100034 267.401681 
L 322.089703 267.517682 
L 328.079372 267.633682 
L 334.069042 267.749683 
L 340.058711 267.865684 
L 346.048381 267.981684 
L 352.03805 268.097685 
L 358.02772 268.213686 
L 364.017389 268.329686 
L 370.007058 268.445687 
L 375.996728 268.561687 
L 381.986397 268.677688 
L 387.976067 268.793689 
L 393.965736 268.909689 
L 399.955405 269.02569 
L 405.945075 269.14169 
L 411.934744 269.257691 
L 417.924414 269.373692 
L 423.914083 269.489692 
L 429.903753 269.605693 
L 435.893422 269.721694 
L 441.883091 269.837694 
L 447.872761 269.953695 
L 453.86243 270.069695 
L 459.8521 270.185696 
L 465.841769 270.301697 
L 471.831439 270.417697 
L 477.821108 270.533698 
L 483.810777 270.649699 
L 489.800447 270.765699 
L 495.790116 270.8817 
L 501.779786 270.9977 
L 507.769455 271.113701 
L 513.759124 271.229702 
L 519.748794 271.345702 
L 525.738463 271.461703 
L 531.728133 271.577703 
L 537.717802 271.693704 
L 543.707472 271.809705 
L 549.697141 271.925705 
L 555.68681 272.041706 
L 561.67648 272.157707 
L 567.666149 272.273707 
L 573.655819 272.389708 
L 579.645488 272.505708 
L 585.635158 272.621709 
L 591.624827 272.73771 
L 597.614496 272.85371 
L 603.604166 272.969711 
L 609.593835 273.085712 
L 615.583505 273.201712 
L 621.573174 273.317713 
L 627.562843 273.433713 
L 633.552513 273.549714 
L 639.542182 273.665715 
L 645.531852 273.781715 
L 651.521521 273.897716 
L 657.511191 274.013717 
L 663.50086 274.129717 
L 669.490529 274.245718 
L 675.480199 274.361718 
" style="fill:none;stroke:#ff756d;stroke-linecap:square;stroke-width:2.25;"/>
   </g>
   <g id="patch_3">
    <path d="M 52.854063 382.7575 
L 52.854063 39.3575 
" style="fill:none;stroke:#000000;stroke-linecap:square;stroke-linejoin:miter;stroke-width:0.8;"/>
   </g>
   <g id="patch_4">
    <path d="M 705.129063 382.7575 
L 705.129063 39.3575 
" style="fill:none;stroke:#000000;stroke-linecap:square;stroke-linejoin:miter;stroke-width:0.8;"/>
   </g>
   <g id="patch_5">
    <path d="M 52.854063 382.7575 
L 705.129062 382.7575 
" style="fill:none;stroke:#000000;stroke-linecap:square;stroke-linejoin:miter;stroke-width:0.8;"/>
   </g>
   <g id="patch_6">
    <path d="M 52.854063 39.3575 
L 705.129062 39.3575 
" style="fill:none;stroke:#000000;stroke-linecap:square;stroke-linejoin:miter;stroke-width:0.8;"/>
   </g>
   <g id="text_35">
    <!-- CG r = -0.41 -->
    <g style="fill:#01c19e;" transform="translate(85.467813 73.6975)scale(0.1 -0.1)">
     <defs>
      <path d="M 3809 666 
L 3809 1919 
L 2778 1919 
L 2778 2438 
L 4434 2438 
L 4434 434 
Q 4069 175 3628 42 
Q 3188 -91 2688 -91 
Q 1594 -91 976 548 
Q 359 1188 359 2328 
Q 359 3472 976 4111 
Q 1594 4750 2688 4750 
Q 3144 4750 3555 4637 
Q 3966 4525 4313 4306 
L 4313 3634 
Q 3963 3931 3569 4081 
Q 3175 4231 2741 4231 
Q 1884 4231 1454 3753 
Q 1025 3275 1025 2328 
Q 1025 1384 1454 906 
Q 1884 428 2741 428 
Q 3075 428 3337 486 
Q 3600 544 3809 666 
z
" id="DejaVuSans-47" transform="scale(0.015625)"/>
      <path d="M 678 2906 
L 4684 2906 
L 4684 2381 
L 678 2381 
L 678 2906 
z
M 678 1631 
L 4684 1631 
L 4684 1100 
L 678 1100 
L 678 1631 
z
" id="DejaVuSans-3d" transform="scale(0.015625)"/>
      <path d="M 684 794 
L 1344 794 
L 1344 0 
L 684 0 
L 684 794 
z
" id="DejaVuSans-2e" transform="scale(0.015625)"/>
     </defs>
     <use xlink:href="#DejaVuSans-43"/>
     <use x="69.824219" xlink:href="#DejaVuSans-47"/>
     <use x="147.314453" xlink:href="#DejaVuSans-20"/>
     <use x="179.101562" xlink:href="#DejaVuSans-72"/>
     <use x="220.214844" xlink:href="#DejaVuSans-20"/>
     <use x="252.001953" xlink:href="#DejaVuSans-3d"/>
     <use x="335.791016" xlink:href="#DejaVuSans-20"/>
     <use x="367.578125" xlink:href="#DejaVuSans-2d"/>
     <use x="403.662109" xlink:href="#DejaVuSans-30"/>
     <use x="467.285156" xlink:href="#DejaVuSans-2e"/>
     <use x="499.072266" xlink:href="#DejaVuSans-34"/>
     <use x="562.695312" xlink:href="#DejaVuSans-31"/>
    </g>
   </g>
   <g id="text_36">
    <!-- CHG r = -0.28 -->
    <g style="fill:#6b8ae0;" transform="translate(85.467813 108.0375)scale(0.1 -0.1)">
     <defs>
      <path d="M 628 4666 
L 1259 4666 
L 1259 2753 
L 3553 2753 
L 3553 4666 
L 4184 4666 
L 4184 0 
L 3553 0 
L 3553 2222 
L 1259 2222 
L 1259 0 
L 628 0 
L 628 4666 
z
" id="DejaVuSans-48" transform="scale(0.015625)"/>
     </defs>
     <use xlink:href="#DejaVuSans-43"/>
     <use x="69.824219" xlink:href="#DejaVuSans-48"/>
     <use x="145.019531" xlink:href="#DejaVuSans-47"/>
     <use x="222.509766" xlink:href="#DejaVuSans-20"/>
     <use x="254.296875" xlink:href="#DejaVuSans-72"/>
     <use x="295.410156" xlink:href="#DejaVuSans-20"/>
     <use x="327.197266" xlink:href="#DejaVuSans-3d"/>
     <use x="410.986328" xlink:href="#DejaVuSans-20"/>
     <use x="442.773438" xlink:href="#DejaVuSans-2d"/>
     <use x="478.857422" xlink:href="#DejaVuSans-30"/>
     <use x="542.480469" xlink:href="#DejaVuSans-2e"/>
     <use x="574.267578" xlink:href="#DejaVuSans-32"/>
     <use x="637.890625" xlink:href="#DejaVuSans-38"/>
    </g>
   </g>
   <g id="text_37">
    <!-- CHH r = -0.69 -->
    <g style="fill:#ff756d;" transform="translate(85.467813 142.3775)scale(0.1 -0.1)">
     <use xlink:href="#DejaVuSans-43"/>
     <use x="69.824219" xlink:href="#DejaVuSans-48"/>
     <use x="145.019531" xlink:href="#DejaVuSans-48"/>
     <use x="220.214844" xlink:href="#DejaVuSans-20"/>
     <use x="252.001953" xlink:href="#DejaVuSans-72"/>
     <use x="293.115234" xlink:href="#DejaVuSans-20"/>
     <use x="324.902344" xlink:href="#DejaVuSans-3d"/>
     <use x="408.691406" xlink:href="#DejaVuSans-20"/>
     <use x="440.478516" xlink:href="#DejaVuSans-2d"/>
     <use x="476.5625" xlink:href="#DejaVuSans-30"/>
     <use x="540.185547" xlink:href="#DejaVuSans-2e"/>
     <use x="571.972656" xlink:href="#DejaVuSans-36"/>
     <use x="635.595703" xlink:href="#DejaVuSans-39"/>
    </g>
   </g>
   <g id="text_38">
    <!-- Correlation between Mean ONSEN Methylation and Total Insertions -->
    <g transform="translate(112.041562 19.3575)scale(0.16 -0.16)">
     <defs>
      <path d="M 269 3500 
L 844 3500 
L 1563 769 
L 2278 3500 
L 2956 3500 
L 3675 769 
L 4391 3500 
L 4966 3500 
L 4050 0 
L 3372 0 
L 2619 2869 
L 1863 0 
L 1184 0 
L 269 3500 
z
" id="DejaVuSans-77" transform="scale(0.015625)"/>
     </defs>
     <use xlink:href="#DejaVuSans-43"/>
     <use x="69.824219" xlink:href="#DejaVuSans-6f"/>
     <use x="131.005859" xlink:href="#DejaVuSans-72"/>
     <use x="170.369141" xlink:href="#DejaVuSans-72"/>
     <use x="209.232422" xlink:href="#DejaVuSans-65"/>
     <use x="270.755859" xlink:href="#DejaVuSans-6c"/>
     <use x="298.539062" xlink:href="#DejaVuSans-61"/>
     <use x="359.818359" xlink:href="#DejaVuSans-74"/>
     <use x="399.027344" xlink:href="#DejaVuSans-69"/>
     <use x="426.810547" xlink:href="#DejaVuSans-6f"/>
     <use x="487.992188" xlink:href="#DejaVuSans-6e"/>
     <use x="551.371094" xlink:href="#DejaVuSans-20"/>
     <use x="583.158203" xlink:href="#DejaVuSans-62"/>
     <use x="646.634766" xlink:href="#DejaVuSans-65"/>
     <use x="708.158203" xlink:href="#DejaVuSans-74"/>
     <use x="747.367188" xlink:href="#DejaVuSans-77"/>
     <use x="829.154297" xlink:href="#DejaVuSans-65"/>
     <use x="890.677734" xlink:href="#DejaVuSans-65"/>
     <use x="952.201172" xlink:href="#DejaVuSans-6e"/>
     <use x="1015.580078" xlink:href="#DejaVuSans-20"/>
     <use x="1047.367188" xlink:href="#DejaVuSans-4d"/>
     <use x="1133.646484" xlink:href="#DejaVuSans-65"/>
     <use x="1195.169922" xlink:href="#DejaVuSans-61"/>
     <use x="1256.449219" xlink:href="#DejaVuSans-6e"/>
     <use x="1319.828125" xlink:href="#DejaVuSans-20"/>
     <use x="1351.615234" xlink:href="#DejaVuSans-4f"/>
     <use x="1430.326172" xlink:href="#DejaVuSans-4e"/>
     <use x="1505.130859" xlink:href="#DejaVuSans-53"/>
     <use x="1568.607422" xlink:href="#DejaVuSans-45"/>
     <use x="1631.791016" xlink:href="#DejaVuSans-4e"/>
     <use x="1706.595703" xlink:href="#DejaVuSans-20"/>
     <use x="1738.382812" xlink:href="#DejaVuSans-4d"/>
     <use x="1824.662109" xlink:href="#DejaVuSans-65"/>
     <use x="1886.185547" xlink:href="#DejaVuSans-74"/>
     <use x="1925.394531" xlink:href="#DejaVuSans-68"/>
     <use x="1988.773438" xlink:href="#DejaVuSans-79"/>
     <use x="2047.953125" xlink:href="#DejaVuSans-6c"/>
     <use x="2075.736328" xlink:href="#DejaVuSans-61"/>
     <use x="2137.015625" xlink:href="#DejaVuSans-74"/>
     <use x="2176.224609" xlink:href="#DejaVuSans-69"/>
     <use x="2204.007812" xlink:href="#DejaVuSans-6f"/>
     <use x="2265.189453" xlink:href="#DejaVuSans-6e"/>
     <use x="2328.568359" xlink:href="#DejaVuSans-20"/>
     <use x="2360.355469" xlink:href="#DejaVuSans-61"/>
     <use x="2421.634766" xlink:href="#DejaVuSans-6e"/>
     <use x="2485.013672" xlink:href="#DejaVuSans-64"/>
     <use x="2548.490234" xlink:href="#DejaVuSans-20"/>
     <use x="2580.277344" xlink:href="#DejaVuSans-54"/>
     <use x="2624.361328" xlink:href="#DejaVuSans-6f"/>
     <use x="2685.542969" xlink:href="#DejaVuSans-74"/>
     <use x="2724.751953" xlink:href="#DejaVuSans-61"/>
     <use x="2786.03125" xlink:href="#DejaVuSans-6c"/>
     <use x="2813.814453" xlink:href="#DejaVuSans-20"/>
     <use x="2845.601562" xlink:href="#DejaVuSans-49"/>
     <use x="2875.09375" xlink:href="#DejaVuSans-6e"/>
     <use x="2938.472656" xlink:href="#DejaVuSans-73"/>
     <use x="2990.572266" xlink:href="#DejaVuSans-65"/>
     <use x="3052.095703" xlink:href="#DejaVuSans-72"/>
     <use x="3093.208984" xlink:href="#DejaVuSans-74"/>
     <use x="3132.417969" xlink:href="#DejaVuSans-69"/>
     <use x="3160.201172" xlink:href="#DejaVuSans-6f"/>
     <use x="3221.382812" xlink:href="#DejaVuSans-6e"/>
     <use x="3284.761719" xlink:href="#DejaVuSans-73"/>
    </g>
   </g>
   <g id="legend_1">
    <g id="patch_7">
     <path d="M 643.8775 106.07 
L 698.129063 106.07 
Q 700.129063 106.07 700.129063 104.07 
L 700.129063 46.3575 
Q 700.129063 44.3575 698.129063 44.3575 
L 643.8775 44.3575 
Q 641.8775 44.3575 641.8775 46.3575 
L 641.8775 104.07 
Q 641.8775 106.07 643.8775 106.07 
z
" style="fill:#ffffff;opacity:0.8;stroke:#cccccc;stroke-linejoin:miter;"/>
    </g>
    <g id="text_39">
     <!-- Context -->
     <g transform="translate(651.415 55.955938)scale(0.1 -0.1)">
      <defs>
       <path d="M 3513 3500 
L 2247 1797 
L 3578 0 
L 2900 0 
L 1881 1375 
L 863 0 
L 184 0 
L 1544 1831 
L 300 3500 
L 978 3500 
L 1906 2253 
L 2834 3500 
L 3513 3500 
z
" id="DejaVuSans-78" transform="scale(0.015625)"/>
      </defs>
      <use xlink:href="#DejaVuSans-43"/>
      <use x="69.824219" xlink:href="#DejaVuSans-6f"/>
      <use x="131.005859" xlink:href="#DejaVuSans-6e"/>
      <use x="194.384766" xlink:href="#DejaVuSans-74"/>
      <use x="233.59375" xlink:href="#DejaVuSans-65"/>
      <use x="293.367188" xlink:href="#DejaVuSans-78"/>
      <use x="352.546875" xlink:href="#DejaVuSans-74"/>
     </g>
    </g>
    <g id="PathCollection_5">
     <defs>
      <path d="M 0 3 
C 0.795609 3 1.55874 2.683901 2.12132 2.12132 
C 2.683901 1.55874 3 0.795609 3 0 
C 3 -0.795609 2.683901 -1.55874 2.12132 -2.12132 
C 1.55874 -2.683901 0.795609 -3 0 -3 
C -0.795609 -3 -1.55874 -2.683901 -2.12132 -2.12132 
C -2.683901 -1.55874 -3 -0.795609 -3 0 
C -3 0.795609 -2.683901 1.55874 -2.12132 2.12132 
C -1.55874 2.683901 -0.795609 3 0 3 
z
" id="ma677b72aae" style="stroke:#01c19e;"/>
     </defs>
     <g>
      <use style="fill:#01c19e;stroke:#01c19e;" x="655.8775" xlink:href="#ma677b72aae" y="68.009063"/>
     </g>
    </g>
    <g id="text_40">
     <!-- CG -->
     <g transform="translate(673.8775 70.634063)scale(0.1 -0.1)">
      <use xlink:href="#DejaVuSans-43"/>
      <use x="69.824219" xlink:href="#DejaVuSans-47"/>
     </g>
    </g>
    <g id="PathCollection_6">
     <defs>
      <path d="M 0 3 
C 0.795609 3 1.55874 2.683901 2.12132 2.12132 
C 2.683901 1.55874 3 0.795609 3 0 
C 3 -0.795609 2.683901 -1.55874 2.12132 -2.12132 
C 1.55874 -2.683901 0.795609 -3 0 -3 
C -0.795609 -3 -1.55874 -2.683901 -2.12132 -2.12132 
C -2.683901 -1.55874 -3 -0.795609 -3 0 
C -3 0.795609 -2.683901 1.55874 -2.12132 2.12132 
C -1.55874 2.683901 -0.795609 3 0 3 
z
" id="mfa981dd2c8" style="stroke:#6b8ae0;"/>
     </defs>
     <g>
      <use style="fill:#6b8ae0;stroke:#6b8ae0;" x="655.8775" xlink:href="#mfa981dd2c8" y="82.687188"/>
     </g>
    </g>
    <g id="text_41">
     <!-- CHG -->
     <g transform="translate(673.8775 85.312188)scale(0.1 -0.1)">
      <use xlink:href="#DejaVuSans-43"/>
      <use x="69.824219" xlink:href="#DejaVuSans-48"/>
      <use x="145.019531" xlink:href="#DejaVuSans-47"/>
     </g>
    </g>
    <g id="PathCollection_7">
     <defs>
      <path d="M 0 3 
C 0.795609 3 1.55874 2.683901 2.12132 2.12132 
C 2.683901 1.55874 3 0.795609 3 0 
C 3 -0.795609 2.683901 -1.55874 2.12132 -2.12132 
C 1.55874 -2.683901 0.795609 -3 0 -3 
C -0.795609 -3 -1.55874 -2.683901 -2.12132 -2.12132 
C -2.683901 -1.55874 -3 -0.795609 -3 0 
C -3 0.795609 -2.683901 1.55874 -2.12132 2.12132 
C -1.55874 2.683901 -0.795609 3 0 3 
z
" id="m34915db6e9" style="stroke:#ff756d;"/>
     </defs>
     <g>
      <use style="fill:#ff756d;stroke:#ff756d;" x="655.8775" xlink:href="#m34915db6e9" y="97.365313"/>
     </g>
    </g>
    <g id="text_42">
     <!-- CHH -->
     <g transform="translate(673.8775 99.990313)scale(0.1 -0.1)">
      <use xlink:href="#DejaVuSans-43"/>
      <use x="69.824219" xlink:href="#DejaVuSans-48"/>
      <use x="145.019531" xlink:href="#DejaVuSans-48"/>
     </g>
    </g>
   </g>
  </g>
 </g>
 <defs>
  <clipPath id="p132d557168">
   <rect height="343.4" width="652.275" x="52.854063" y="39.3575"/>
  </clipPath>
 </defs>
</svg>
