<?xml version="1.0" encoding="utf-8" standalone="no"?>
<!DOCTYPE svg PUBLIC "-//W3C//DTD SVG 1.1//EN"
  "http://www.w3.org/Graphics/SVG/1.1/DTD/svg11.dtd">
<svg height="223.469375pt" version="1.1" viewBox="0 0 453.965312 223.469375" width="453.965312pt" xmlns="http://www.w3.org/2000/svg" xmlns:xlink="http://www.w3.org/1999/xlink">
 <metadata>
  <rdf:RDF xmlns:cc="http://creativecommons.org/ns#" xmlns:dc="http://purl.org/dc/elements/1.1/" xmlns:rdf="http://www.w3.org/1999/02/22-rdf-syntax-ns#">
   <cc:Work>
    <dc:type rdf:resource="http://purl.org/dc/dcmitype/StillImage"/>
    <dc:date>2025-04-02T19:25:34.905972</dc:date>
    <dc:format>image/svg+xml</dc:format>
    <dc:creator>
     <cc:Agent>
      <dc:title>Matplotlib v3.4.3, https://matplotlib.org/</dc:title>
     </cc:Agent>
    </dc:creator>
   </cc:Work>
  </rdf:RDF>
 </metadata>
 <defs>
  <style type="text/css">*{stroke-linecap:butt;stroke-linejoin:round;}</style>
 </defs>
 <g id="figure_1">
  <g id="patch_1">
   <path d="M 0 223.469375 
L 453.965312 223.469375 
L 453.965312 -0 
L 0 -0 
z
" style="fill:none;"/>
  </g>
  <g id="axes_1">
   <g id="patch_2">
    <path d="M 54.40125 195.72 
L 335.085675 195.72 
L 335.085675 66.12 
L 54.40125 66.12 
z
" style="fill:#ffffff;"/>
   </g>
   <g id="PolyCollection_1">
    <defs>
     <path d="M 67.159633 -37.414591 
L 67.159633 -37.181019 
L 68.660619 -37.181019 
L 70.161605 -37.181019 
L 71.662592 -37.233986 
L 73.163578 -37.192707 
L 74.664564 -37.192707 
L 76.16555 -37.192707 
L 77.666537 -37.192707 
L 79.167523 -37.115675 
L 80.668509 -37.115675 
L 82.169495 -37.115675 
L 83.670481 -37.066781 
L 85.171468 -36.951375 
L 86.672454 -36.886941 
L 88.17344 -36.888381 
L 89.674426 -36.868334 
L 91.175413 -36.840142 
L 92.676399 -36.840142 
L 94.177385 -36.917173 
L 95.678371 -36.917173 
L 97.179358 -36.917173 
L 98.680344 -36.966067 
L 100.18133 -37.045615 
L 101.682316 -37.061154 
L 103.183302 -36.972582 
L 104.684289 -36.992629 
L 106.185275 -37.020821 
L 107.686261 -36.901303 
L 109.187247 -36.843529 
L 110.688234 -36.825919 
L 112.18922 -36.741545 
L 113.690206 -34.358766 
L 115.191192 -38.89714 
L 116.692179 -41.793892 
L 118.193165 -40.214106 
L 119.694151 -43.567104 
L 121.195137 -40.967662 
L 122.696123 -39.397542 
L 124.19711 -45.033275 
L 125.698096 -50.103933 
L 127.199082 -48.022061 
L 128.700068 -55.452815 
L 130.201055 -56.263217 
L 131.702041 -63.038418 
L 133.203027 -70.872158 
L 134.704013 -65.179661 
L 136.205 -65.179661 
L 137.705986 -71.921406 
L 139.206972 -74.807438 
L 140.707958 -79.246231 
L 142.208944 -89.89215 
L 143.709931 -93.725741 
L 145.210917 -85.813381 
L 146.711903 -84.404464 
L 148.212889 -86.68425 
L 149.713876 -89.023748 
L 151.214862 -98.541019 
L 152.715848 -102.39599 
L 154.216834 -100.633808 
L 155.717821 -98.890894 
L 157.218807 -98.520943 
L 158.719793 -88.06886 
L 160.220779 -88.242958 
L 161.721765 -88.268893 
L 163.222752 -86.941757 
L 164.723738 -94.737136 
L 166.224724 -85.931658 
L 167.72571 -75.17553 
L 169.226697 -68.473721 
L 170.727683 -69.136079 
L 172.228669 -67.215143 
L 173.729655 -66.625654 
L 175.230642 -66.637287 
L 176.731628 -67.502518 
L 178.232614 -65.19104 
L 179.7336 -65.50831 
L 181.234586 -75.634775 
L 182.735573 -85.530055 
L 184.236559 -94.218158 
L 185.737545 -92.377304 
L 187.238531 -93.605577 
L 188.739518 -93.166142 
L 190.240504 -102.642552 
L 191.74149 -102.626995 
L 193.242476 -106.694899 
L 194.743463 -104.909043 
L 196.244449 -98.705072 
L 197.745435 -89.489091 
L 199.246421 -83.057275 
L 200.747407 -83.106103 
L 202.248394 -82.17695 
L 203.74938 -89.530662 
L 205.250366 -91.212039 
L 206.751352 -88.150376 
L 208.252339 -87.886849 
L 209.753325 -90.923375 
L 211.254311 -96.781382 
L 212.755297 -95.839084 
L 214.256284 -101.819198 
L 215.75727 -102.003092 
L 217.258256 -98.872835 
L 218.759242 -102.505916 
L 220.260228 -103.007038 
L 221.761215 -102.978274 
L 223.262201 -102.329578 
L 224.763187 -98.283385 
L 226.264173 -97.125609 
L 227.76516 -107.058628 
L 229.266146 -105.58351 
L 230.767132 -106.918611 
L 232.268118 -111.648226 
L 233.769105 -112.140694 
L 235.270091 -109.825876 
L 236.771077 -103.826551 
L 238.272063 -103.712525 
L 239.773049 -98.3954 
L 241.274036 -94.929882 
L 242.775022 -95.458884 
L 244.276008 -97.124506 
L 245.776994 -95.36007 
L 247.277981 -84.673365 
L 248.778967 -73.194102 
L 250.279953 -66.263724 
L 251.780939 -73.205204 
L 253.281926 -73.744954 
L 254.782912 -81.115115 
L 256.283898 -84.545029 
L 257.784884 -80.349924 
L 259.28587 -71.923018 
L 260.786857 -65.549199 
L 262.287843 -74.810748 
L 263.788829 -77.41019 
L 265.289815 -84.507856 
L 266.790802 -86.762641 
L 268.291788 -83.028105 
L 269.792774 -75.657944 
L 271.29376 -68.958472 
L 272.794747 -73.503933 
L 274.295733 -81.74762 
L 275.796719 -81.74762 
L 277.297705 -82.678953 
L 278.798691 -87.789352 
L 280.299678 -80.691685 
L 281.800664 -71.495421 
L 283.30165 -66.88184 
L 284.802636 -66.774262 
L 286.303623 -66.774262 
L 287.804609 -58.040879 
L 289.305595 -49.797192 
L 290.806581 -49.720328 
L 292.307568 -42.12689 
L 293.808554 -37.016491 
L 295.30954 -36.922781 
L 296.810526 -36.922781 
L 298.311512 -36.922781 
L 299.812499 -36.971506 
L 301.313485 -36.971506 
L 302.814471 -37.004561 
L 304.315457 -36.89291 
L 305.816444 -36.969774 
L 307.31743 -36.969774 
L 308.818416 -36.969774 
L 310.319402 -37.063484 
L 311.820389 -37.063484 
L 313.321375 -36.692023 
L 314.822361 -36.750876 
L 316.323347 -36.750876 
L 317.824333 -36.632517 
L 319.32532 -36.744167 
L 320.826306 -36.744167 
L 322.327292 -36.643044 
L 322.327292 -38.565524 
L 322.327292 -38.565524 
L 320.826306 -38.357332 
L 319.32532 -38.357332 
L 317.824333 -38.597213 
L 316.323347 -38.327131 
L 314.822361 -38.327131 
L 313.321375 -38.536821 
L 311.820389 -37.683557 
L 310.319402 -37.683557 
L 308.818416 -37.89436 
L 307.31743 -37.89436 
L 305.816444 -37.89436 
L 304.315457 -38.061562 
L 302.814471 -37.821682 
L 301.313485 -37.913101 
L 299.812499 -37.913101 
L 298.311512 -37.937424 
L 296.810526 -37.937424 
L 295.30954 -37.937424 
L 293.808554 -37.726621 
L 292.307568 -50.003965 
L 290.806581 -61.887699 
L 289.305595 -61.720496 
L 287.804609 -73.850949 
L 286.303623 -84.908283 
L 284.802636 -84.908283 
L 283.30165 -84.67427 
L 281.800664 -95.133155 
L 280.299678 -106.020409 
L 278.798691 -118.209813 
L 277.297705 -105.932469 
L 275.796719 -106.022713 
L 274.295733 -106.022713 
L 272.794747 -93.892261 
L 271.29376 -92.395635 
L 269.792774 -103.378332 
L 268.291788 -113.324166 
L 266.790802 -114.810496 
L 265.289815 -115.126631 
L 263.788829 -102.937226 
L 262.287843 -108.908287 
L 260.786857 -102.905369 
L 259.28587 -114.67988 
L 257.784884 -125.830224 
L 256.283898 -127.070271 
L 254.782912 -126.009781 
L 253.281926 -116.063947 
L 251.780939 -114.753962 
L 250.279953 -103.550573 
L 248.778967 -114.586577 
L 247.277981 -120.581138 
L 245.776994 -125.5817 
L 244.276008 -125.288436 
L 242.775022 -126.534369 
L 241.274036 -126.967202 
L 239.773049 -128.778726 
L 238.272063 -138.610577 
L 236.771077 -139.36117 
L 235.270091 -151.248671 
L 233.769105 -151.458466 
L 232.268118 -150.984602 
L 230.767132 -146.152558 
L 229.266146 -145.237239 
L 227.76516 -143.03193 
L 226.264173 -136.558409 
L 224.763187 -135.732146 
L 223.262201 -137.328582 
L 221.761215 -137.451425 
L 220.260228 -135.044518 
L 218.759242 -135.313198 
L 217.258256 -130.886293 
L 215.75727 -134.792661 
L 214.256284 -135.561152 
L 212.755297 -132.470698 
L 211.254311 -130.306189 
L 209.753325 -126.831324 
L 208.252339 -126.790313 
L 206.751352 -127.135532 
L 205.250366 -129.640017 
L 203.74938 -130.181988 
L 202.248394 -129.088196 
L 200.747407 -130.054403 
L 199.246421 -130.2643 
L 197.745435 -134.383842 
L 196.244449 -142.000276 
L 194.743463 -145.51841 
L 193.242476 -145.685809 
L 191.74149 -142.729617 
L 190.240504 -142.44464 
L 188.739518 -135.932619 
L 187.238531 -134.923211 
L 185.737545 -134.232719 
L 184.236559 -133.821602 
L 182.735573 -122.601546 
L 181.234586 -116.545498 
L 179.7336 -109.930797 
L 178.232614 -109.644966 
L 176.731628 -111.811829 
L 175.230642 -111.318299 
L 173.729655 -111.345019 
L 172.228669 -109.990932 
L 170.727683 -110.655408 
L 169.226697 -111.105411 
L 167.72571 -121.686661 
L 166.224724 -128.735534 
L 164.723738 -136.252564 
L 163.222752 -124.983719 
L 161.721765 -125.068154 
L 160.220779 -124.484127 
L 158.719793 -124.884039 
L 157.218807 -131.884265 
L 155.717821 -131.361138 
L 154.216834 -130.818949 
L 152.715848 -130.993832 
L 151.214862 -129.46134 
L 149.713876 -123.579336 
L 148.212889 -128.953291 
L 146.711903 -128.842438 
L 145.210917 -130.643421 
L 143.709931 -133.476707 
L 142.208944 -134.280646 
L 140.707958 -128.793619 
L 139.206972 -126.40617 
L 137.705986 -126.611353 
L 136.205 -120.728796 
L 134.704013 -120.728796 
L 133.203027 -123.82341 
L 131.702041 -116.709096 
L 130.201055 -111.620359 
L 128.700068 -112.318384 
L 127.199082 -106.380025 
L 125.698096 -101.625538 
L 124.19711 -93.114338 
L 122.696123 -82.323249 
L 121.195137 -78.702048 
L 119.694151 -72.730987 
L 118.193165 -64.262419 
L 116.692179 -60.560683 
L 115.191192 -53.33225 
L 113.690206 -43.907884 
L 112.18922 -38.434511 
L 110.688234 -38.213015 
L 109.187247 -38.070652 
L 107.686261 -37.900425 
L 106.185275 -37.640437 
L 104.684289 -37.720931 
L 103.183302 -37.791479 
L 101.682316 -37.656054 
L 100.18133 -37.984249 
L 98.680344 -38.551577 
L 97.179358 -38.657936 
L 95.678371 -38.657936 
L 94.177385 -38.657936 
L 92.676399 -38.791162 
L 91.175413 -38.791162 
L 89.674426 -38.710667 
L 88.17344 -38.64012 
L 86.672454 -38.624849 
L 85.171468 -38.190296 
L 83.670481 -37.544963 
L 82.169495 -37.438604 
L 80.668509 -37.438604 
L 79.167523 -37.438604 
L 77.666537 -37.305379 
L 76.16555 -37.305379 
L 74.664564 -37.305379 
L 73.163578 -37.305379 
L 71.662592 -37.233986 
L 70.161605 -37.414591 
L 68.660619 -37.414591 
L 67.159633 -37.414591 
z
" id="m568b531224" style="stroke:#01c19e;stroke-opacity:0.15;"/>
    </defs>
    <g clip-path="url(#p37b8253ddd)">
     <use style="fill:#01c19e;fill-opacity:0.15;stroke:#01c19e;stroke-opacity:0.15;" x="0" xlink:href="#m568b531224" y="223.469375"/>
    </g>
   </g>
   <g id="PolyCollection_2">
    <defs>
     <path d="M 67.159633 -37.74076 
L 67.159633 -36.98805 
L 68.660619 -36.98805 
L 70.161605 -36.934638 
L 71.662592 -36.833469 
L 73.163578 -36.913076 
L 74.664564 -36.913076 
L 76.16555 -36.913076 
L 77.666537 -36.913076 
L 79.167523 -36.995635 
L 80.668509 -37.079406 
L 82.169495 -36.862742 
L 83.670481 -36.862742 
L 85.171468 -36.845741 
L 86.672454 -36.94691 
L 88.17344 -36.94691 
L 89.674426 -36.806615 
L 91.175413 -36.806615 
L 92.676399 -36.762187 
L 94.177385 -36.762187 
L 95.678371 -36.762187 
L 97.179358 -36.97885 
L 98.680344 -36.97885 
L 100.18133 -36.674538 
L 101.682316 -36.674538 
L 103.183302 -36.674538 
L 104.684289 -36.814833 
L 106.185275 -36.772066 
L 107.686261 -36.816494 
L 109.187247 -36.816494 
L 110.688234 -36.816494 
L 112.18922 -36.643521 
L 113.690206 -36.210194 
L 115.191192 -36.506973 
L 116.692179 -36.497849 
L 118.193165 -36.386672 
L 119.694151 -36.367326 
L 121.195137 -36.410093 
L 122.696123 -36.410093 
L 124.19711 -38.356059 
L 125.698096 -37.836171 
L 127.199082 -39.50708 
L 128.700068 -41.884662 
L 130.201055 -43.154536 
L 131.702041 -43.295834 
L 133.203027 -44.357977 
L 134.704013 -45.635507 
L 136.205 -47.387512 
L 137.705986 -50.745555 
L 139.206972 -48.799589 
L 140.707958 -49.772124 
L 142.208944 -50.290987 
L 143.709931 -49.093354 
L 145.210917 -49.489911 
L 146.711903 -51.135564 
L 148.212889 -50.445675 
L 149.713876 -49.18749 
L 151.214862 -48.024391 
L 152.715848 -45.44597 
L 154.216834 -46.064423 
L 155.717821 -45.573427 
L 157.218807 -45.935022 
L 158.719793 -44.912491 
L 160.220779 -41.931485 
L 161.721765 -41.959336 
L 163.222752 -41.494263 
L 164.723738 -42.150181 
L 166.224724 -42.06258 
L 167.72571 -40.577339 
L 169.226697 -39.958886 
L 170.727683 -39.99162 
L 172.228669 -37.345041 
L 173.729655 -37.62095 
L 175.230642 -36.785359 
L 176.731628 -34.919857 
L 178.232614 -34.473992 
L 179.7336 -35.964201 
L 181.234586 -38.696402 
L 182.735573 -42.613831 
L 184.236559 -41.644152 
L 185.737545 -42.401368 
L 187.238531 -44.348021 
L 188.739518 -44.348021 
L 190.240504 -47.823027 
L 191.74149 -50.905612 
L 193.242476 -51.555473 
L 194.743463 -52.270701 
L 196.244449 -49.037195 
L 197.745435 -47.503026 
L 199.246421 -47.432927 
L 200.747407 -47.626038 
L 202.248394 -45.514242 
L 203.74938 -46.123358 
L 205.250366 -45.830391 
L 206.751352 -42.808243 
L 208.252339 -42.808243 
L 209.753325 -43.820807 
L 211.254311 -45.087385 
L 212.755297 -42.922349 
L 214.256284 -46.076638 
L 215.75727 -44.007582 
L 217.258256 -46.613867 
L 218.759242 -48.371621 
L 220.260228 -49.067225 
L 221.761215 -49.749151 
L 223.262201 -49.00649 
L 224.763187 -46.175264 
L 226.264173 -45.465822 
L 227.76516 -45.953217 
L 229.266146 -47.205578 
L 230.767132 -49.143871 
L 232.268118 -47.877994 
L 233.769105 -48.210955 
L 235.270091 -48.170276 
L 236.771077 -49.142611 
L 238.272063 -52.225374 
L 239.773049 -51.182682 
L 241.274036 -50.526821 
L 242.775022 -52.376264 
L 244.276008 -53.254084 
L 245.776994 -54.211935 
L 247.277981 -51.716335 
L 248.778967 -49.016505 
L 250.279953 -45.328098 
L 251.780939 -41.940176 
L 253.281926 -39.710956 
L 254.782912 -40.157816 
L 256.283898 -41.830973 
L 257.784884 -41.043188 
L 259.28587 -36.798495 
L 260.786857 -33.640284 
L 262.287843 -37.110583 
L 263.788829 -42.254433 
L 265.289815 -46.924969 
L 266.790802 -51.039984 
L 268.291788 -51.466601 
L 269.792774 -51.019741 
L 271.29376 -55.302217 
L 272.794747 -54.267111 
L 274.295733 -54.267111 
L 275.796719 -55.653524 
L 277.297705 -58.713208 
L 278.798691 -53.569358 
L 280.299678 -50.927221 
L 281.800664 -49.205042 
L 283.30165 -48.501197 
L 284.802636 -48.501197 
L 286.303623 -42.528444 
L 287.804609 -42.357843 
L 289.305595 -42.121982 
L 290.806581 -42.107352 
L 292.307568 -37.165888 
L 293.808554 -37.165888 
L 295.30954 -37.217043 
L 296.810526 -36.449678 
L 298.311512 -36.616024 
L 299.812499 -36.616024 
L 301.313485 -36.731869 
L 302.814471 -36.875917 
L 304.315457 -37.111779 
L 305.816444 -37.126409 
L 307.31743 -37.126409 
L 308.818416 -37.126409 
L 310.319402 -36.991937 
L 311.820389 -37.099515 
L 313.321375 -36.945451 
L 314.822361 -36.945451 
L 316.323347 -36.945451 
L 317.824333 -36.824716 
L 319.32532 -36.824716 
L 320.826306 -36.824716 
L 322.327292 -36.788273 
L 322.327292 -38.284349 
L 322.327292 -38.284349 
L 320.826306 -38.203732 
L 319.32532 -38.203732 
L 317.824333 -38.203732 
L 316.323347 -37.792954 
L 314.822361 -37.792954 
L 313.321375 -37.792954 
L 311.820389 -37.526503 
L 310.319402 -37.760516 
L 308.818416 -37.467999 
L 307.31743 -37.467999 
L 305.816444 -37.467999 
L 304.315457 -37.499825 
L 302.814471 -37.985411 
L 301.313485 -38.396997 
L 299.812499 -38.768263 
L 298.311512 -38.768263 
L 296.810526 -39.341409 
L 295.30954 -44.290538 
L 293.808554 -44.405613 
L 292.307568 -44.405613 
L 290.806581 -54.104319 
L 289.305595 -54.072493 
L 287.804609 -53.586907 
L 286.303623 -56.529237 
L 284.802636 -63.870799 
L 283.30165 -63.870799 
L 281.800664 -65.458486 
L 280.299678 -66.185608 
L 278.798691 -73.09015 
L 277.297705 -85.751141 
L 275.796719 -80.050898 
L 274.295733 -83.235563 
L 272.794747 -83.235563 
L 271.29376 -82.637711 
L 269.792774 -79.366907 
L 268.291788 -82.977284 
L 266.790802 -83.470464 
L 265.289815 -81.541107 
L 263.788829 -79.298337 
L 262.287843 -66.637347 
L 260.786857 -66.287799 
L 259.28587 -68.819868 
L 257.784884 -75.214993 
L 256.283898 -78.31897 
L 254.782912 -75.856708 
L 253.281926 -72.246332 
L 251.780939 -74.845409 
L 250.279953 -75.065708 
L 248.778967 -76.070549 
L 247.277981 -81.899001 
L 245.776994 -81.755035 
L 244.276008 -79.178583 
L 242.775022 -78.533862 
L 241.274036 -72.67382 
L 239.773049 -72.754194 
L 238.272063 -76.451267 
L 236.771077 -72.904108 
L 235.270091 -72.597588 
L 233.769105 -70.503274 
L 232.268118 -71.156881 
L 230.767132 -72.62141 
L 229.266146 -72.063811 
L 227.76516 -69.559572 
L 226.264173 -70.679145 
L 224.763187 -73.410551 
L 223.262201 -76.400929 
L 221.761215 -74.694997 
L 220.260228 -71.789015 
L 218.759242 -70.743095 
L 217.258256 -67.008308 
L 215.75727 -63.034207 
L 214.256284 -64.50018 
L 212.755297 -63.64244 
L 211.254311 -66.194353 
L 209.753325 -61.402812 
L 208.252339 -61.07572 
L 206.751352 -61.07572 
L 205.250366 -67.526891 
L 203.74938 -68.577879 
L 202.248394 -65.830605 
L 200.747407 -68.642945 
L 199.246421 -68.024001 
L 197.745435 -67.862982 
L 196.244449 -71.864307 
L 194.743463 -79.164663 
L 193.242476 -78.59286 
L 191.74149 -80.085625 
L 190.240504 -74.344012 
L 188.739518 -75.769664 
L 187.238531 -75.769664 
L 185.737545 -75.644739 
L 184.236559 -73.685161 
L 182.735573 -71.457756 
L 181.234586 -65.405789 
L 179.7336 -59.732883 
L 178.232614 -58.298635 
L 176.731628 -58.511697 
L 175.230642 -61.134043 
L 173.729655 -59.214645 
L 172.228669 -60.326378 
L 170.727683 -62.580614 
L 169.226697 -63.165367 
L 167.72571 -65.81536 
L 166.224724 -67.862929 
L 164.723738 -71.680926 
L 163.222752 -67.326619 
L 161.721765 -69.324232 
L 160.220779 -68.983566 
L 158.719793 -70.091911 
L 157.218807 -71.969573 
L 155.717821 -70.403614 
L 154.216834 -70.647061 
L 152.715848 -67.997067 
L 151.214862 -74.242311 
L 149.713876 -72.868561 
L 148.212889 -75.855777 
L 146.711903 -75.307469 
L 145.210917 -73.170953 
L 143.709931 -73.3567 
L 142.208944 -75.271817 
L 140.707958 -73.994732 
L 139.206972 -72.89061 
L 137.705986 -76.517602 
L 136.205 -66.603945 
L 134.704013 -62.532248 
L 133.203027 -60.804523 
L 131.702041 -58.018132 
L 130.201055 -57.74444 
L 128.700068 -54.06225 
L 127.199082 -50.153113 
L 125.698096 -47.496649 
L 124.19711 -46.302437 
L 122.696123 -42.675445 
L 121.195137 -42.675445 
L 119.694151 -42.878631 
L 118.193165 -41.61914 
L 116.692179 -41.250399 
L 115.191192 -39.680666 
L 113.690206 -39.713026 
L 112.18922 -38.71765 
L 110.688234 -38.280131 
L 109.187247 -38.280131 
L 107.686261 -38.280131 
L 106.185275 -38.356969 
L 104.684289 -38.153783 
L 103.183302 -38.640259 
L 101.682316 -38.640259 
L 100.18133 -38.640259 
L 98.680344 -38.184785 
L 97.179358 -38.184785 
L 95.678371 -38.682473 
L 94.177385 -38.682473 
L 92.676399 -38.682473 
L 91.175413 -38.605636 
L 89.674426 -38.605636 
L 88.17344 -38.11916 
L 86.672454 -38.11916 
L 85.171468 -38.35081 
L 83.670481 -38.078039 
L 82.169495 -38.078039 
L 80.668509 -37.580351 
L 79.167523 -37.77117 
L 77.666537 -37.913955 
L 76.16555 -37.913955 
L 74.664564 -37.913955 
L 73.163578 -37.913955 
L 71.662592 -38.087124 
L 70.161605 -37.855473 
L 68.660619 -37.74076 
L 67.159633 -37.74076 
z
" id="mfe22d26478" style="stroke:#6b8ae0;stroke-opacity:0.15;"/>
    </defs>
    <g clip-path="url(#p37b8253ddd)">
     <use style="fill:#6b8ae0;fill-opacity:0.15;stroke:#6b8ae0;stroke-opacity:0.15;" x="0" xlink:href="#mfe22d26478" y="223.469375"/>
    </g>
   </g>
   <g id="PolyCollection_3">
    <defs>
     <path d="M 67.159633 -37.750181 
L 67.159633 -37.044141 
L 68.660619 -37.090555 
L 70.161605 -37.069315 
L 71.662592 -37.155628 
L 73.163578 -37.158347 
L 74.664564 -37.097055 
L 76.16555 -37.091071 
L 77.666537 -37.091068 
L 79.167523 -37.111964 
L 80.668509 -37.082362 
L 82.169495 -37.074226 
L 83.670481 -37.04557 
L 85.171468 -37.076039 
L 86.672454 -36.929073 
L 88.17344 -36.932113 
L 89.674426 -36.990883 
L 91.175413 -36.988929 
L 92.676399 -37.006411 
L 94.177385 -36.999316 
L 95.678371 -37.020459 
L 97.179358 -37.034234 
L 98.680344 -37.052111 
L 100.18133 -37.059677 
L 101.682316 -37.115028 
L 103.183302 -37.079981 
L 104.684289 -37.062075 
L 106.185275 -37.060166 
L 107.686261 -37.047276 
L 109.187247 -37.120181 
L 110.688234 -37.105157 
L 112.18922 -37.120443 
L 113.690206 -37.020075 
L 115.191192 -37.279226 
L 116.692179 -37.648233 
L 118.193165 -37.752828 
L 119.694151 -37.823547 
L 121.195137 -38.001119 
L 122.696123 -37.997839 
L 124.19711 -38.106661 
L 125.698096 -38.333642 
L 127.199082 -38.55842 
L 128.700068 -39.506632 
L 130.201055 -39.803656 
L 131.702041 -40.337257 
L 133.203027 -41.293842 
L 134.704013 -41.760409 
L 136.205 -42.400235 
L 137.705986 -43.419977 
L 139.206972 -43.795929 
L 140.707958 -44.850622 
L 142.208944 -45.86624 
L 143.709931 -45.527572 
L 145.210917 -45.581168 
L 146.711903 -46.181243 
L 148.212889 -45.718052 
L 149.713876 -45.531491 
L 151.214862 -46.039148 
L 152.715848 -46.652818 
L 154.216834 -46.437584 
L 155.717821 -46.084663 
L 157.218807 -45.881004 
L 158.719793 -45.491929 
L 160.220779 -45.001857 
L 161.721765 -44.165582 
L 163.222752 -44.641203 
L 164.723738 -44.694027 
L 166.224724 -43.954569 
L 167.72571 -43.011627 
L 169.226697 -43.038867 
L 170.727683 -42.851101 
L 172.228669 -42.272613 
L 173.729655 -42.832794 
L 175.230642 -43.735678 
L 176.731628 -43.995102 
L 178.232614 -43.439165 
L 179.7336 -45.605071 
L 181.234586 -47.465262 
L 182.735573 -48.11707 
L 184.236559 -48.715973 
L 185.737545 -49.442483 
L 187.238531 -49.751707 
L 188.739518 -49.580508 
L 190.240504 -49.604303 
L 191.74149 -49.522597 
L 193.242476 -49.84102 
L 194.743463 -48.91023 
L 196.244449 -47.479277 
L 197.745435 -46.824327 
L 199.246421 -47.163014 
L 200.747407 -47.424195 
L 202.248394 -48.051193 
L 203.74938 -48.843652 
L 205.250366 -49.139691 
L 206.751352 -48.529923 
L 208.252339 -48.038604 
L 209.753325 -48.059679 
L 211.254311 -47.948516 
L 212.755297 -47.831779 
L 214.256284 -49.108286 
L 215.75727 -48.111569 
L 217.258256 -47.24215 
L 218.759242 -46.666408 
L 220.260228 -46.689466 
L 221.761215 -47.52377 
L 223.262201 -48.78569 
L 224.763187 -48.134198 
L 226.264173 -48.085006 
L 227.76516 -48.796219 
L 229.266146 -47.329093 
L 230.767132 -47.937537 
L 232.268118 -47.877087 
L 233.769105 -48.406286 
L 235.270091 -49.01051 
L 236.771077 -48.615334 
L 238.272063 -48.449026 
L 239.773049 -48.123364 
L 241.274036 -47.753144 
L 242.775022 -47.532383 
L 244.276008 -48.432286 
L 245.776994 -48.161273 
L 247.277981 -48.337443 
L 248.778967 -47.273951 
L 250.279953 -45.975265 
L 251.780939 -46.193491 
L 253.281926 -46.108831 
L 254.782912 -46.547859 
L 256.283898 -46.850595 
L 257.784884 -46.374151 
L 259.28587 -44.623047 
L 260.786857 -44.240045 
L 262.287843 -43.867843 
L 263.788829 -43.774308 
L 265.289815 -44.225983 
L 266.790802 -44.729582 
L 268.291788 -43.354872 
L 269.792774 -42.385859 
L 271.29376 -41.954305 
L 272.794747 -42.369358 
L 274.295733 -42.672374 
L 275.796719 -42.764405 
L 277.297705 -43.571126 
L 278.798691 -44.065423 
L 280.299678 -42.939397 
L 281.800664 -41.954901 
L 283.30165 -41.975614 
L 284.802636 -41.83226 
L 286.303623 -41.47276 
L 287.804609 -40.470413 
L 289.305595 -39.906932 
L 290.806581 -39.157268 
L 292.307568 -38.069672 
L 293.808554 -37.4598 
L 295.30954 -37.408988 
L 296.810526 -37.008983 
L 298.311512 -37.032443 
L 299.812499 -37.035022 
L 301.313485 -37.043818 
L 302.814471 -37.040744 
L 304.315457 -37.023291 
L 305.816444 -37.0164 
L 307.31743 -36.995092 
L 308.818416 -36.998108 
L 310.319402 -37.013515 
L 311.820389 -37.027267 
L 313.321375 -37.015833 
L 314.822361 -37.02086 
L 316.323347 -37.028485 
L 317.824333 -37.030408 
L 319.32532 -37.05744 
L 320.826306 -37.062844 
L 322.327292 -37.087344 
L 322.327292 -37.796754 
L 322.327292 -37.796754 
L 320.826306 -37.855257 
L 319.32532 -37.86838 
L 317.824333 -37.927576 
L 316.323347 -37.798308 
L 314.822361 -37.806478 
L 313.321375 -37.829282 
L 311.820389 -37.8947 
L 310.319402 -38.019924 
L 308.818416 -38.114678 
L 307.31743 -38.103414 
L 305.816444 -38.118869 
L 304.315457 -38.099145 
L 302.814471 -38.112231 
L 301.313485 -38.188808 
L 299.812499 -38.214386 
L 298.311512 -38.230692 
L 296.810526 -38.366369 
L 295.30954 -39.787968 
L 293.808554 -39.976673 
L 292.307568 -41.539972 
L 290.806581 -44.185298 
L 289.305595 -45.641335 
L 287.804609 -47.334447 
L 286.303623 -49.457203 
L 284.802636 -50.493283 
L 283.30165 -51.14157 
L 281.800664 -51.199324 
L 280.299678 -52.268014 
L 278.798691 -55.454613 
L 277.297705 -54.645741 
L 275.796719 -53.731575 
L 274.295733 -54.473849 
L 272.794747 -53.292728 
L 271.29376 -52.739745 
L 269.792774 -53.686473 
L 268.291788 -55.934758 
L 266.790802 -57.897058 
L 265.289815 -57.550047 
L 263.788829 -55.40357 
L 262.287843 -55.083697 
L 260.786857 -54.796666 
L 259.28587 -55.291742 
L 257.784884 -57.534409 
L 256.283898 -58.346274 
L 254.782912 -58.505927 
L 253.281926 -56.995852 
L 251.780939 -57.356516 
L 250.279953 -57.001006 
L 248.778967 -59.907963 
L 247.277981 -61.717183 
L 245.776994 -61.610917 
L 244.276008 -62.188848 
L 242.775022 -62.052288 
L 241.274036 -62.480339 
L 239.773049 -63.425402 
L 238.272063 -64.478194 
L 236.771077 -64.733695 
L 235.270091 -66.639618 
L 233.769105 -65.453353 
L 232.268118 -64.994931 
L 230.767132 -64.993746 
L 229.266146 -63.382342 
L 227.76516 -64.921028 
L 226.264173 -63.532277 
L 224.763187 -62.592056 
L 223.262201 -63.048394 
L 221.761215 -61.022924 
L 220.260228 -57.998794 
L 218.759242 -58.551104 
L 217.258256 -59.018003 
L 215.75727 -60.014055 
L 214.256284 -61.868872 
L 212.755297 -60.828722 
L 211.254311 -60.980708 
L 209.753325 -60.794323 
L 208.252339 -60.984634 
L 206.751352 -61.876363 
L 205.250366 -63.013335 
L 203.74938 -61.764385 
L 202.248394 -61.405562 
L 200.747407 -60.647627 
L 199.246421 -60.77149 
L 197.745435 -59.91064 
L 196.244449 -60.874837 
L 194.743463 -63.816059 
L 193.242476 -65.285085 
L 191.74149 -65.496431 
L 190.240504 -65.348734 
L 188.739518 -65.058162 
L 187.238531 -65.836048 
L 185.737545 -65.885513 
L 184.236559 -64.117849 
L 182.735573 -63.523069 
L 181.234586 -62.625358 
L 179.7336 -59.517544 
L 178.232614 -56.636316 
L 176.731628 -57.161227 
L 175.230642 -57.419521 
L 173.729655 -57.261508 
L 172.228669 -55.816033 
L 170.727683 -56.110386 
L 169.226697 -57.821435 
L 167.72571 -58.476013 
L 166.224724 -59.55729 
L 164.723738 -60.667945 
L 163.222752 -61.71392 
L 161.721765 -61.210458 
L 160.220779 -61.721927 
L 158.719793 -62.0128 
L 157.218807 -62.578988 
L 155.717821 -62.603539 
L 154.216834 -61.57062 
L 152.715848 -60.855849 
L 151.214862 -60.921655 
L 149.713876 -60.133188 
L 148.212889 -59.082551 
L 146.711903 -60.546558 
L 145.210917 -60.410308 
L 143.709931 -59.835692 
L 142.208944 -59.294403 
L 140.707958 -57.849628 
L 139.206972 -55.99351 
L 137.705986 -54.993242 
L 136.205 -52.973122 
L 134.704013 -51.860552 
L 133.203027 -51.36332 
L 131.702041 -48.269029 
L 130.201055 -47.084181 
L 128.700068 -46.279833 
L 127.199082 -45.48228 
L 125.698096 -45.054217 
L 124.19711 -44.499933 
L 122.696123 -44.181833 
L 121.195137 -43.335984 
L 119.694151 -42.366296 
L 118.193165 -41.200607 
L 116.692179 -41.006101 
L 115.191192 -39.839497 
L 113.690206 -39.227812 
L 112.18922 -38.714564 
L 110.688234 -38.606929 
L 109.187247 -38.500376 
L 107.686261 -38.21462 
L 106.185275 -38.249974 
L 104.684289 -38.283155 
L 103.183302 -38.370015 
L 101.682316 -38.204315 
L 100.18133 -38.425238 
L 98.680344 -38.320095 
L 97.179358 -38.377795 
L 95.678371 -38.440884 
L 94.177385 -38.612832 
L 92.676399 -38.560129 
L 91.175413 -38.483695 
L 89.674426 -38.374171 
L 88.17344 -38.34099 
L 86.672454 -38.430434 
L 85.171468 -38.27394 
L 83.670481 -38.236733 
L 82.169495 -38.237824 
L 80.668509 -38.167657 
L 79.167523 -37.991712 
L 77.666537 -38.066238 
L 76.16555 -38.064603 
L 74.664564 -38.120138 
L 73.163578 -38.00756 
L 71.662592 -37.924891 
L 70.161605 -37.827646 
L 68.660619 -37.722987 
L 67.159633 -37.750181 
z
" id="m4ef6313a24" style="stroke:#ff756d;stroke-opacity:0.15;"/>
    </defs>
    <g clip-path="url(#p37b8253ddd)">
     <use style="fill:#ff756d;fill-opacity:0.15;stroke:#ff756d;stroke-opacity:0.15;" x="0" xlink:href="#m4ef6313a24" y="223.469375"/>
    </g>
   </g>
   <g id="matplotlib.axis_1">
    <g id="xtick_1">
     <g id="line2d_1">
      <defs>
       <path d="M 0 0 
L 0 3.5 
" id="m58690d7725" style="stroke:#000000;stroke-width:0.8;"/>
      </defs>
      <g>
       <use style="stroke:#000000;stroke-width:0.8;" x="59.654702" xlink:href="#m58690d7725" y="195.72"/>
      </g>
     </g>
     <g id="text_1">
      <!-- -2kb -->
      <g transform="translate(44.178139 213.357812)scale(0.14 -0.14)">
       <defs>
        <path d="M 313 2009 
L 1997 2009 
L 1997 1497 
L 313 1497 
L 313 2009 
z
" id="DejaVuSans-2d" transform="scale(0.015625)"/>
        <path d="M 1228 531 
L 3431 531 
L 3431 0 
L 469 0 
L 469 531 
Q 828 903 1448 1529 
Q 2069 2156 2228 2338 
Q 2531 2678 2651 2914 
Q 2772 3150 2772 3378 
Q 2772 3750 2511 3984 
Q 2250 4219 1831 4219 
Q 1534 4219 1204 4116 
Q 875 4013 500 3803 
L 500 4441 
Q 881 4594 1212 4672 
Q 1544 4750 1819 4750 
Q 2544 4750 2975 4387 
Q 3406 4025 3406 3419 
Q 3406 3131 3298 2873 
Q 3191 2616 2906 2266 
Q 2828 2175 2409 1742 
Q 1991 1309 1228 531 
z
" id="DejaVuSans-32" transform="scale(0.015625)"/>
        <path d="M 581 4863 
L 1159 4863 
L 1159 1991 
L 2875 3500 
L 3609 3500 
L 1753 1863 
L 3688 0 
L 2938 0 
L 1159 1709 
L 1159 0 
L 581 0 
L 581 4863 
z
" id="DejaVuSans-6b" transform="scale(0.015625)"/>
        <path d="M 3116 1747 
Q 3116 2381 2855 2742 
Q 2594 3103 2138 3103 
Q 1681 3103 1420 2742 
Q 1159 2381 1159 1747 
Q 1159 1113 1420 752 
Q 1681 391 2138 391 
Q 2594 391 2855 752 
Q 3116 1113 3116 1747 
z
M 1159 2969 
Q 1341 3281 1617 3432 
Q 1894 3584 2278 3584 
Q 2916 3584 3314 3078 
Q 3713 2572 3713 1747 
Q 3713 922 3314 415 
Q 2916 -91 2278 -91 
Q 1894 -91 1617 61 
Q 1341 213 1159 525 
L 1159 0 
L 581 0 
L 581 4863 
L 1159 4863 
L 1159 2969 
z
" id="DejaVuSans-62" transform="scale(0.015625)"/>
       </defs>
       <use xlink:href="#DejaVuSans-2d"/>
       <use x="36.083984" xlink:href="#DejaVuSans-32"/>
       <use x="99.707031" xlink:href="#DejaVuSans-6b"/>
       <use x="157.617188" xlink:href="#DejaVuSans-62"/>
      </g>
     </g>
    </g>
    <g id="xtick_2">
     <g id="line2d_2">
      <g>
       <use style="stroke:#000000;stroke-width:0.8;" x="119.694151" xlink:href="#m58690d7725" y="195.72"/>
      </g>
     </g>
     <g id="text_2">
      <!-- start -->
      <g transform="translate(103.391807 213.357812)scale(0.14 -0.14)">
       <defs>
        <path d="M 2834 3397 
L 2834 2853 
Q 2591 2978 2328 3040 
Q 2066 3103 1784 3103 
Q 1356 3103 1142 2972 
Q 928 2841 928 2578 
Q 928 2378 1081 2264 
Q 1234 2150 1697 2047 
L 1894 2003 
Q 2506 1872 2764 1633 
Q 3022 1394 3022 966 
Q 3022 478 2636 193 
Q 2250 -91 1575 -91 
Q 1294 -91 989 -36 
Q 684 19 347 128 
L 347 722 
Q 666 556 975 473 
Q 1284 391 1588 391 
Q 1994 391 2212 530 
Q 2431 669 2431 922 
Q 2431 1156 2273 1281 
Q 2116 1406 1581 1522 
L 1381 1569 
Q 847 1681 609 1914 
Q 372 2147 372 2553 
Q 372 3047 722 3315 
Q 1072 3584 1716 3584 
Q 2034 3584 2315 3537 
Q 2597 3491 2834 3397 
z
" id="DejaVuSans-73" transform="scale(0.015625)"/>
        <path d="M 1172 4494 
L 1172 3500 
L 2356 3500 
L 2356 3053 
L 1172 3053 
L 1172 1153 
Q 1172 725 1289 603 
Q 1406 481 1766 481 
L 2356 481 
L 2356 0 
L 1766 0 
Q 1100 0 847 248 
Q 594 497 594 1153 
L 594 3053 
L 172 3053 
L 172 3500 
L 594 3500 
L 594 4494 
L 1172 4494 
z
" id="DejaVuSans-74" transform="scale(0.015625)"/>
        <path d="M 2194 1759 
Q 1497 1759 1228 1600 
Q 959 1441 959 1056 
Q 959 750 1161 570 
Q 1363 391 1709 391 
Q 2188 391 2477 730 
Q 2766 1069 2766 1631 
L 2766 1759 
L 2194 1759 
z
M 3341 1997 
L 3341 0 
L 2766 0 
L 2766 531 
Q 2569 213 2275 61 
Q 1981 -91 1556 -91 
Q 1019 -91 701 211 
Q 384 513 384 1019 
Q 384 1609 779 1909 
Q 1175 2209 1959 2209 
L 2766 2209 
L 2766 2266 
Q 2766 2663 2505 2880 
Q 2244 3097 1772 3097 
Q 1472 3097 1187 3025 
Q 903 2953 641 2809 
L 641 3341 
Q 956 3463 1253 3523 
Q 1550 3584 1831 3584 
Q 2591 3584 2966 3190 
Q 3341 2797 3341 1997 
z
" id="DejaVuSans-61" transform="scale(0.015625)"/>
        <path d="M 2631 2963 
Q 2534 3019 2420 3045 
Q 2306 3072 2169 3072 
Q 1681 3072 1420 2755 
Q 1159 2438 1159 1844 
L 1159 0 
L 581 0 
L 581 3500 
L 1159 3500 
L 1159 2956 
Q 1341 3275 1631 3429 
Q 1922 3584 2338 3584 
Q 2397 3584 2469 3576 
Q 2541 3569 2628 3553 
L 2631 2963 
z
" id="DejaVuSans-72" transform="scale(0.015625)"/>
       </defs>
       <use xlink:href="#DejaVuSans-73"/>
       <use x="52.099609" xlink:href="#DejaVuSans-74"/>
       <use x="91.308594" xlink:href="#DejaVuSans-61"/>
       <use x="152.587891" xlink:href="#DejaVuSans-72"/>
       <use x="193.701172" xlink:href="#DejaVuSans-74"/>
      </g>
     </g>
    </g>
    <g id="xtick_3">
     <g id="line2d_3">
      <g>
       <use style="stroke:#000000;stroke-width:0.8;" x="269.792774" xlink:href="#m58690d7725" y="195.72"/>
      </g>
     </g>
     <g id="text_3">
      <!-- end -->
      <g transform="translate(256.60543 213.357812)scale(0.14 -0.14)">
       <defs>
        <path d="M 3597 1894 
L 3597 1613 
L 953 1613 
Q 991 1019 1311 708 
Q 1631 397 2203 397 
Q 2534 397 2845 478 
Q 3156 559 3463 722 
L 3463 178 
Q 3153 47 2828 -22 
Q 2503 -91 2169 -91 
Q 1331 -91 842 396 
Q 353 884 353 1716 
Q 353 2575 817 3079 
Q 1281 3584 2069 3584 
Q 2775 3584 3186 3129 
Q 3597 2675 3597 1894 
z
M 3022 2063 
Q 3016 2534 2758 2815 
Q 2500 3097 2075 3097 
Q 1594 3097 1305 2825 
Q 1016 2553 972 2059 
L 3022 2063 
z
" id="DejaVuSans-65" transform="scale(0.015625)"/>
        <path d="M 3513 2113 
L 3513 0 
L 2938 0 
L 2938 2094 
Q 2938 2591 2744 2837 
Q 2550 3084 2163 3084 
Q 1697 3084 1428 2787 
Q 1159 2491 1159 1978 
L 1159 0 
L 581 0 
L 581 3500 
L 1159 3500 
L 1159 2956 
Q 1366 3272 1645 3428 
Q 1925 3584 2291 3584 
Q 2894 3584 3203 3211 
Q 3513 2838 3513 2113 
z
" id="DejaVuSans-6e" transform="scale(0.015625)"/>
        <path d="M 2906 2969 
L 2906 4863 
L 3481 4863 
L 3481 0 
L 2906 0 
L 2906 525 
Q 2725 213 2448 61 
Q 2172 -91 1784 -91 
Q 1150 -91 751 415 
Q 353 922 353 1747 
Q 353 2572 751 3078 
Q 1150 3584 1784 3584 
Q 2172 3584 2448 3432 
Q 2725 3281 2906 2969 
z
M 947 1747 
Q 947 1113 1208 752 
Q 1469 391 1925 391 
Q 2381 391 2643 752 
Q 2906 1113 2906 1747 
Q 2906 2381 2643 2742 
Q 2381 3103 1925 3103 
Q 1469 3103 1208 2742 
Q 947 2381 947 1747 
z
" id="DejaVuSans-64" transform="scale(0.015625)"/>
       </defs>
       <use xlink:href="#DejaVuSans-65"/>
       <use x="61.523438" xlink:href="#DejaVuSans-6e"/>
       <use x="124.902344" xlink:href="#DejaVuSans-64"/>
      </g>
     </g>
    </g>
    <g id="xtick_4">
     <g id="line2d_4">
      <g>
       <use style="stroke:#000000;stroke-width:0.8;" x="329.832223" xlink:href="#m58690d7725" y="195.72"/>
      </g>
     </g>
     <g id="text_4">
      <!-- +2kb -->
      <g transform="translate(311.015348 213.357812)scale(0.14 -0.14)">
       <defs>
        <path d="M 2944 4013 
L 2944 2272 
L 4684 2272 
L 4684 1741 
L 2944 1741 
L 2944 0 
L 2419 0 
L 2419 1741 
L 678 1741 
L 678 2272 
L 2419 2272 
L 2419 4013 
L 2944 4013 
z
" id="DejaVuSans-2b" transform="scale(0.015625)"/>
       </defs>
       <use xlink:href="#DejaVuSans-2b"/>
       <use x="83.789062" xlink:href="#DejaVuSans-32"/>
       <use x="147.412109" xlink:href="#DejaVuSans-6b"/>
       <use x="205.322266" xlink:href="#DejaVuSans-62"/>
      </g>
     </g>
    </g>
   </g>
   <g id="matplotlib.axis_2">
    <g id="ytick_1">
     <g id="line2d_5">
      <defs>
       <path d="M 0 0 
L -3.5 0 
" id="m8ca4037228" style="stroke:#000000;stroke-width:0.8;"/>
      </defs>
      <g>
       <use style="stroke:#000000;stroke-width:0.8;" x="54.40125" xlink:href="#m8ca4037228" y="186.235389"/>
      </g>
     </g>
     <g id="text_5">
      <!-- 0 -->
      <g transform="translate(41.03875 190.034607)scale(0.1 -0.1)">
       <defs>
        <path d="M 2034 4250 
Q 1547 4250 1301 3770 
Q 1056 3291 1056 2328 
Q 1056 1369 1301 889 
Q 1547 409 2034 409 
Q 2525 409 2770 889 
Q 3016 1369 3016 2328 
Q 3016 3291 2770 3770 
Q 2525 4250 2034 4250 
z
M 2034 4750 
Q 2819 4750 3233 4129 
Q 3647 3509 3647 2328 
Q 3647 1150 3233 529 
Q 2819 -91 2034 -91 
Q 1250 -91 836 529 
Q 422 1150 422 2328 
Q 422 3509 836 4129 
Q 1250 4750 2034 4750 
z
" id="DejaVuSans-30" transform="scale(0.015625)"/>
       </defs>
       <use xlink:href="#DejaVuSans-30"/>
      </g>
     </g>
    </g>
    <g id="ytick_2">
     <g id="line2d_6">
      <g>
       <use style="stroke:#000000;stroke-width:0.8;" x="54.40125" xlink:href="#m8ca4037228" y="162.634063"/>
      </g>
     </g>
     <g id="text_6">
      <!-- 20 -->
      <g transform="translate(34.67625 166.433282)scale(0.1 -0.1)">
       <use xlink:href="#DejaVuSans-32"/>
       <use x="63.623047" xlink:href="#DejaVuSans-30"/>
      </g>
     </g>
    </g>
    <g id="ytick_3">
     <g id="line2d_7">
      <g>
       <use style="stroke:#000000;stroke-width:0.8;" x="54.40125" xlink:href="#m8ca4037228" y="139.032737"/>
      </g>
     </g>
     <g id="text_7">
      <!-- 40 -->
      <g transform="translate(34.67625 142.831956)scale(0.1 -0.1)">
       <defs>
        <path d="M 2419 4116 
L 825 1625 
L 2419 1625 
L 2419 4116 
z
M 2253 4666 
L 3047 4666 
L 3047 1625 
L 3713 1625 
L 3713 1100 
L 3047 1100 
L 3047 0 
L 2419 0 
L 2419 1100 
L 313 1100 
L 313 1709 
L 2253 4666 
z
" id="DejaVuSans-34" transform="scale(0.015625)"/>
       </defs>
       <use xlink:href="#DejaVuSans-34"/>
       <use x="63.623047" xlink:href="#DejaVuSans-30"/>
      </g>
     </g>
    </g>
    <g id="ytick_4">
     <g id="line2d_8">
      <g>
       <use style="stroke:#000000;stroke-width:0.8;" x="54.40125" xlink:href="#m8ca4037228" y="115.431412"/>
      </g>
     </g>
     <g id="text_8">
      <!-- 60 -->
      <g transform="translate(34.67625 119.23063)scale(0.1 -0.1)">
       <defs>
        <path d="M 2113 2584 
Q 1688 2584 1439 2293 
Q 1191 2003 1191 1497 
Q 1191 994 1439 701 
Q 1688 409 2113 409 
Q 2538 409 2786 701 
Q 3034 994 3034 1497 
Q 3034 2003 2786 2293 
Q 2538 2584 2113 2584 
z
M 3366 4563 
L 3366 3988 
Q 3128 4100 2886 4159 
Q 2644 4219 2406 4219 
Q 1781 4219 1451 3797 
Q 1122 3375 1075 2522 
Q 1259 2794 1537 2939 
Q 1816 3084 2150 3084 
Q 2853 3084 3261 2657 
Q 3669 2231 3669 1497 
Q 3669 778 3244 343 
Q 2819 -91 2113 -91 
Q 1303 -91 875 529 
Q 447 1150 447 2328 
Q 447 3434 972 4092 
Q 1497 4750 2381 4750 
Q 2619 4750 2861 4703 
Q 3103 4656 3366 4563 
z
" id="DejaVuSans-36" transform="scale(0.015625)"/>
       </defs>
       <use xlink:href="#DejaVuSans-36"/>
       <use x="63.623047" xlink:href="#DejaVuSans-30"/>
      </g>
     </g>
    </g>
    <g id="ytick_5">
     <g id="line2d_9">
      <g>
       <use style="stroke:#000000;stroke-width:0.8;" x="54.40125" xlink:href="#m8ca4037228" y="91.830086"/>
      </g>
     </g>
     <g id="text_9">
      <!-- 80 -->
      <g transform="translate(34.67625 95.629305)scale(0.1 -0.1)">
       <defs>
        <path d="M 2034 2216 
Q 1584 2216 1326 1975 
Q 1069 1734 1069 1313 
Q 1069 891 1326 650 
Q 1584 409 2034 409 
Q 2484 409 2743 651 
Q 3003 894 3003 1313 
Q 3003 1734 2745 1975 
Q 2488 2216 2034 2216 
z
M 1403 2484 
Q 997 2584 770 2862 
Q 544 3141 544 3541 
Q 544 4100 942 4425 
Q 1341 4750 2034 4750 
Q 2731 4750 3128 4425 
Q 3525 4100 3525 3541 
Q 3525 3141 3298 2862 
Q 3072 2584 2669 2484 
Q 3125 2378 3379 2068 
Q 3634 1759 3634 1313 
Q 3634 634 3220 271 
Q 2806 -91 2034 -91 
Q 1263 -91 848 271 
Q 434 634 434 1313 
Q 434 1759 690 2068 
Q 947 2378 1403 2484 
z
M 1172 3481 
Q 1172 3119 1398 2916 
Q 1625 2713 2034 2713 
Q 2441 2713 2670 2916 
Q 2900 3119 2900 3481 
Q 2900 3844 2670 4047 
Q 2441 4250 2034 4250 
Q 1625 4250 1398 4047 
Q 1172 3844 1172 3481 
z
" id="DejaVuSans-38" transform="scale(0.015625)"/>
       </defs>
       <use xlink:href="#DejaVuSans-38"/>
       <use x="63.623047" xlink:href="#DejaVuSans-30"/>
      </g>
     </g>
    </g>
    <g id="ytick_6">
     <g id="line2d_10">
      <g>
       <use style="stroke:#000000;stroke-width:0.8;" x="54.40125" xlink:href="#m8ca4037228" y="68.22876"/>
      </g>
     </g>
     <g id="text_10">
      <!-- 100 -->
      <g transform="translate(28.31375 72.027979)scale(0.1 -0.1)">
       <defs>
        <path d="M 794 531 
L 1825 531 
L 1825 4091 
L 703 3866 
L 703 4441 
L 1819 4666 
L 2450 4666 
L 2450 531 
L 3481 531 
L 3481 0 
L 794 0 
L 794 531 
z
" id="DejaVuSans-31" transform="scale(0.015625)"/>
       </defs>
       <use xlink:href="#DejaVuSans-31"/>
       <use x="63.623047" xlink:href="#DejaVuSans-30"/>
       <use x="127.246094" xlink:href="#DejaVuSans-30"/>
      </g>
     </g>
    </g>
    <g id="text_11">
     <!-- Methylation Level -->
     <g transform="translate(21.402188 192.937813)rotate(-90)scale(0.14 -0.14)">
      <defs>
       <path d="M 628 4666 
L 1569 4666 
L 2759 1491 
L 3956 4666 
L 4897 4666 
L 4897 0 
L 4281 0 
L 4281 4097 
L 3078 897 
L 2444 897 
L 1241 4097 
L 1241 0 
L 628 0 
L 628 4666 
z
" id="DejaVuSans-4d" transform="scale(0.015625)"/>
       <path d="M 3513 2113 
L 3513 0 
L 2938 0 
L 2938 2094 
Q 2938 2591 2744 2837 
Q 2550 3084 2163 3084 
Q 1697 3084 1428 2787 
Q 1159 2491 1159 1978 
L 1159 0 
L 581 0 
L 581 4863 
L 1159 4863 
L 1159 2956 
Q 1366 3272 1645 3428 
Q 1925 3584 2291 3584 
Q 2894 3584 3203 3211 
Q 3513 2838 3513 2113 
z
" id="DejaVuSans-68" transform="scale(0.015625)"/>
       <path d="M 2059 -325 
Q 1816 -950 1584 -1140 
Q 1353 -1331 966 -1331 
L 506 -1331 
L 506 -850 
L 844 -850 
Q 1081 -850 1212 -737 
Q 1344 -625 1503 -206 
L 1606 56 
L 191 3500 
L 800 3500 
L 1894 763 
L 2988 3500 
L 3597 3500 
L 2059 -325 
z
" id="DejaVuSans-79" transform="scale(0.015625)"/>
       <path d="M 603 4863 
L 1178 4863 
L 1178 0 
L 603 0 
L 603 4863 
z
" id="DejaVuSans-6c" transform="scale(0.015625)"/>
       <path d="M 603 3500 
L 1178 3500 
L 1178 0 
L 603 0 
L 603 3500 
z
M 603 4863 
L 1178 4863 
L 1178 4134 
L 603 4134 
L 603 4863 
z
" id="DejaVuSans-69" transform="scale(0.015625)"/>
       <path d="M 1959 3097 
Q 1497 3097 1228 2736 
Q 959 2375 959 1747 
Q 959 1119 1226 758 
Q 1494 397 1959 397 
Q 2419 397 2687 759 
Q 2956 1122 2956 1747 
Q 2956 2369 2687 2733 
Q 2419 3097 1959 3097 
z
M 1959 3584 
Q 2709 3584 3137 3096 
Q 3566 2609 3566 1747 
Q 3566 888 3137 398 
Q 2709 -91 1959 -91 
Q 1206 -91 779 398 
Q 353 888 353 1747 
Q 353 2609 779 3096 
Q 1206 3584 1959 3584 
z
" id="DejaVuSans-6f" transform="scale(0.015625)"/>
       <path id="DejaVuSans-20" transform="scale(0.015625)"/>
       <path d="M 628 4666 
L 1259 4666 
L 1259 531 
L 3531 531 
L 3531 0 
L 628 0 
L 628 4666 
z
" id="DejaVuSans-4c" transform="scale(0.015625)"/>
       <path d="M 191 3500 
L 800 3500 
L 1894 563 
L 2988 3500 
L 3597 3500 
L 2284 0 
L 1503 0 
L 191 3500 
z
" id="DejaVuSans-76" transform="scale(0.015625)"/>
      </defs>
      <use xlink:href="#DejaVuSans-4d"/>
      <use x="86.279297" xlink:href="#DejaVuSans-65"/>
      <use x="147.802734" xlink:href="#DejaVuSans-74"/>
      <use x="187.011719" xlink:href="#DejaVuSans-68"/>
      <use x="250.390625" xlink:href="#DejaVuSans-79"/>
      <use x="309.570312" xlink:href="#DejaVuSans-6c"/>
      <use x="337.353516" xlink:href="#DejaVuSans-61"/>
      <use x="398.632812" xlink:href="#DejaVuSans-74"/>
      <use x="437.841797" xlink:href="#DejaVuSans-69"/>
      <use x="465.625" xlink:href="#DejaVuSans-6f"/>
      <use x="526.806641" xlink:href="#DejaVuSans-6e"/>
      <use x="590.185547" xlink:href="#DejaVuSans-20"/>
      <use x="621.972656" xlink:href="#DejaVuSans-4c"/>
      <use x="675.935547" xlink:href="#DejaVuSans-65"/>
      <use x="737.458984" xlink:href="#DejaVuSans-76"/>
      <use x="796.638672" xlink:href="#DejaVuSans-65"/>
      <use x="858.162109" xlink:href="#DejaVuSans-6c"/>
     </g>
    </g>
   </g>
   <g id="line2d_11">
    <path clip-path="url(#p37b8253ddd)" d="M 67.159633 186.17157 
L 83.670481 186.163503 
L 86.672454 185.71348 
L 98.680344 185.710553 
L 101.682316 186.110771 
L 112.18922 185.881347 
L 113.690206 184.33605 
L 115.191192 177.35468 
L 116.692179 172.292088 
L 118.193165 171.231113 
L 119.694151 165.320329 
L 121.195137 163.63452 
L 122.696123 162.608979 
L 124.19711 154.395569 
L 125.698096 147.60464 
L 127.199082 146.268332 
L 128.700068 139.583776 
L 130.201055 139.527587 
L 131.702041 133.595618 
L 133.203027 126.121591 
L 134.704013 130.515146 
L 136.205 130.515146 
L 137.705986 124.202996 
L 139.206972 122.862571 
L 140.707958 119.44945 
L 142.208944 111.382977 
L 143.709931 109.868151 
L 145.210917 115.240974 
L 146.711903 116.845924 
L 148.212889 115.650605 
L 149.713876 117.167833 
L 151.214862 109.468195 
L 152.715848 106.774464 
L 154.216834 107.742996 
L 155.717821 108.343359 
L 157.218807 108.266771 
L 158.719793 116.992925 
L 160.220779 117.105832 
L 161.721765 116.800852 
L 163.222752 117.506637 
L 164.723738 107.974525 
L 166.224724 116.135779 
L 169.226697 133.679809 
L 170.727683 133.573631 
L 172.228669 134.866338 
L 173.729655 134.484038 
L 175.230642 134.491582 
L 176.731628 133.812201 
L 178.232614 136.051372 
L 179.7336 135.749822 
L 182.735573 119.403575 
L 184.236559 109.449495 
L 185.737545 110.164363 
L 187.238531 109.204981 
L 188.739518 108.919995 
L 190.240504 100.925779 
L 191.74149 100.791069 
L 193.242476 97.279021 
L 194.743463 98.255649 
L 196.244449 103.116701 
L 197.745435 111.532909 
L 199.246421 116.808588 
L 200.747407 116.889122 
L 202.248394 117.836802 
L 203.74938 113.61305 
L 205.250366 113.043347 
L 206.751352 115.826421 
L 208.252339 116.130794 
L 209.753325 114.592026 
L 211.254311 109.92559 
L 212.755297 109.314484 
L 214.256284 104.7792 
L 215.75727 105.071498 
L 217.258256 108.589811 
L 218.759242 104.559818 
L 220.260228 104.443597 
L 221.761215 103.254526 
L 223.262201 103.640295 
L 224.763187 106.461609 
L 226.264173 106.627366 
L 227.76516 98.424096 
L 229.266146 98.059 
L 230.767132 96.93379 
L 232.268118 92.152961 
L 233.769105 91.669795 
L 235.270091 92.932101 
L 236.771077 101.875515 
L 238.272063 102.307824 
L 239.773049 109.882312 
L 241.274036 112.520833 
L 242.775022 112.472749 
L 244.276008 112.262904 
L 245.776994 112.99849 
L 247.277981 120.842124 
L 250.279953 138.562226 
L 251.780939 129.489792 
L 253.281926 128.564925 
L 254.782912 119.906927 
L 256.283898 117.661725 
L 257.784884 120.379301 
L 260.786857 139.242091 
L 262.287843 131.609858 
L 263.788829 133.295667 
L 265.289815 123.652131 
L 266.790802 122.682806 
L 268.291788 125.29324 
L 271.29376 142.792322 
L 272.794747 139.771278 
L 274.295733 129.584208 
L 275.796719 129.584208 
L 277.297705 129.163664 
L 278.798691 120.469793 
L 281.800664 140.155087 
L 283.30165 147.69132 
L 286.303623 147.628102 
L 289.305595 167.710531 
L 290.806581 167.665361 
L 292.307568 177.403948 
L 293.808554 186.097819 
L 296.810526 186.039272 
L 311.820389 186.095855 
L 313.321375 185.854953 
L 316.323347 185.930372 
L 317.824333 185.85451 
L 320.826306 185.918625 
L 322.327292 185.865091 
L 322.327292 185.865091 
" style="fill:none;stroke:#01c19e;stroke-linecap:square;stroke-width:1.5;"/>
   </g>
   <g id="line2d_12">
    <path clip-path="url(#p37b8253ddd)" d="M 67.159633 186.10497 
L 83.670481 185.998985 
L 85.171468 185.871099 
L 88.17344 185.93634 
L 89.674426 185.76325 
L 95.678371 185.747045 
L 97.179358 185.887557 
L 112.18922 185.78879 
L 113.690206 185.507765 
L 115.191192 185.375556 
L 116.692179 184.595251 
L 118.193165 184.466469 
L 119.694151 183.846397 
L 122.696123 183.926606 
L 124.19711 181.140127 
L 125.698096 180.802965 
L 127.199082 178.639278 
L 128.700068 175.495919 
L 130.201055 173.019887 
L 131.702041 172.812392 
L 133.203027 170.888125 
L 134.704013 169.385498 
L 136.205 166.473646 
L 137.705986 159.837796 
L 139.206972 162.624276 
L 140.707958 161.585947 
L 142.208944 160.687973 
L 143.709931 162.244348 
L 145.210917 162.138943 
L 146.711903 160.247859 
L 148.212889 160.318649 
L 149.713876 162.441349 
L 151.214862 162.336024 
L 152.715848 166.747856 
L 154.216834 165.113633 
L 155.717821 165.480855 
L 157.218807 164.517078 
L 158.719793 165.967174 
L 160.220779 168.01185 
L 161.721765 167.827591 
L 163.222752 169.058934 
L 164.723738 166.553822 
L 166.224724 168.506621 
L 169.226697 171.907249 
L 170.727683 172.183258 
L 172.228669 174.633665 
L 173.729655 175.051577 
L 175.230642 174.509674 
L 176.731628 176.753598 
L 178.232614 177.083061 
L 179.7336 175.620833 
L 181.234586 171.41828 
L 182.735573 166.433581 
L 184.236559 165.804718 
L 185.737545 164.446322 
L 187.238531 163.410533 
L 188.739518 163.410533 
L 190.240504 162.385856 
L 191.74149 157.973756 
L 193.242476 158.395209 
L 194.743463 157.751693 
L 196.244449 163.018624 
L 197.745435 165.786371 
L 199.246421 165.740911 
L 200.747407 165.334883 
L 202.248394 167.796951 
L 203.74938 166.118757 
L 205.250366 166.790734 
L 206.751352 171.527394 
L 208.252339 171.527394 
L 209.753325 170.857566 
L 211.254311 167.828506 
L 212.755297 170.18698 
L 214.256284 168.180966 
L 215.75727 169.948481 
L 217.258256 166.658287 
L 218.759242 163.912017 
L 220.260228 163.041255 
L 221.761215 161.247301 
L 223.262201 160.765666 
L 224.763187 163.676468 
L 226.264173 165.396892 
L 227.76516 165.712981 
L 229.266146 163.83468 
L 230.767132 162.586734 
L 232.268118 163.951938 
L 233.769105 164.112261 
L 235.270091 163.085443 
L 236.771077 162.446016 
L 238.272063 159.131055 
L 239.773049 161.500937 
L 241.274036 161.869055 
L 242.775022 158.014312 
L 244.276008 157.253041 
L 245.776994 155.48589 
L 247.277981 156.661707 
L 248.778967 160.925848 
L 250.279953 163.272472 
L 251.780939 165.076582 
L 253.281926 167.490731 
L 256.283898 163.394404 
L 257.784884 165.340285 
L 259.28587 170.660193 
L 260.786857 173.505333 
L 262.287843 171.59541 
L 263.788829 162.69299 
L 265.289815 159.236337 
L 266.790802 156.214151 
L 268.291788 156.247433 
L 269.792774 158.276051 
L 271.29376 154.499411 
L 272.794747 154.718038 
L 274.295733 154.718038 
L 275.796719 155.617164 
L 277.297705 151.237201 
L 278.798691 160.139621 
L 280.299678 164.912961 
L 283.30165 167.283377 
L 284.802636 167.283377 
L 286.303623 173.940534 
L 287.804609 175.497 
L 289.305595 175.372137 
L 290.806581 175.36354 
L 292.307568 182.683624 
L 295.30954 182.715585 
L 296.810526 185.573832 
L 298.311512 185.777231 
L 299.812499 185.777231 
L 304.315457 186.163573 
L 311.820389 186.156366 
L 314.822361 186.100173 
L 316.323347 186.100173 
L 317.824333 185.955151 
L 322.327292 185.933064 
L 322.327292 185.933064 
" style="fill:none;stroke:#6b8ae0;stroke-linecap:square;stroke-width:1.5;"/>
   </g>
   <g id="line2d_13">
    <path clip-path="url(#p37b8253ddd)" d="M 67.159633 186.072214 
L 70.161605 186.020895 
L 73.163578 185.886422 
L 77.666537 185.890722 
L 80.668509 185.844365 
L 86.672454 185.789621 
L 89.674426 185.786848 
L 94.177385 185.663301 
L 98.680344 185.783272 
L 100.18133 185.726917 
L 101.682316 185.809704 
L 103.183302 185.744377 
L 107.686261 185.838427 
L 109.187247 185.659097 
L 112.18922 185.551871 
L 113.690206 185.345432 
L 115.191192 184.910013 
L 116.692179 184.142208 
L 118.193165 183.992657 
L 121.195137 182.800824 
L 122.696123 182.379539 
L 124.19711 182.166078 
L 127.199082 181.449025 
L 128.700068 180.576143 
L 130.201055 180.025456 
L 131.702041 179.166232 
L 133.203027 177.140794 
L 134.704013 176.658894 
L 136.205 175.782696 
L 137.705986 174.262765 
L 139.206972 173.574655 
L 140.707958 172.11925 
L 142.208944 170.889053 
L 143.709931 170.787743 
L 146.711903 170.105475 
L 148.212889 171.069074 
L 149.713876 170.637035 
L 151.214862 169.988974 
L 155.717821 169.125274 
L 157.218807 169.239379 
L 161.721765 170.781355 
L 163.222752 170.291814 
L 164.723738 170.788389 
L 167.72571 172.725555 
L 169.226697 173.039224 
L 170.727683 173.988632 
L 172.228669 174.425052 
L 173.729655 173.422224 
L 175.230642 172.891775 
L 176.731628 172.891211 
L 178.232614 173.431635 
L 181.234586 168.424065 
L 182.735573 167.649306 
L 184.236559 167.052464 
L 185.737545 165.805377 
L 187.238531 165.675498 
L 188.739518 166.15004 
L 190.240504 165.992856 
L 193.242476 165.906323 
L 194.743463 167.106231 
L 196.244449 169.292318 
L 197.745435 170.101892 
L 199.246421 169.502123 
L 200.747407 169.433464 
L 205.250366 167.392862 
L 206.751352 168.266232 
L 208.252339 168.957756 
L 209.753325 169.042374 
L 211.254311 169.004763 
L 212.755297 169.139125 
L 214.256284 167.980796 
L 215.75727 169.406563 
L 217.258256 170.339299 
L 218.759242 170.860619 
L 220.260228 171.125245 
L 221.761215 169.196028 
L 223.262201 167.552333 
L 224.763187 168.106248 
L 226.264173 167.660733 
L 227.76516 166.610752 
L 229.266146 168.113657 
L 230.767132 167.003733 
L 232.268118 167.033366 
L 233.769105 166.539556 
L 235.270091 165.644311 
L 236.771077 166.79486 
L 238.272063 167.005765 
L 241.274036 168.352634 
L 242.775022 168.677039 
L 244.276008 168.158808 
L 245.776994 168.58328 
L 247.277981 168.442062 
L 248.778967 169.878418 
L 250.279953 171.981239 
L 251.780939 171.694371 
L 253.281926 171.917034 
L 254.782912 170.942482 
L 256.283898 170.87094 
L 257.784884 171.515095 
L 259.28587 173.51198 
L 260.786857 173.95102 
L 262.287843 173.993605 
L 263.788829 173.880436 
L 265.289815 172.58136 
L 266.790802 172.156055 
L 269.792774 175.433209 
L 271.29376 176.12235 
L 272.794747 175.638332 
L 274.295733 174.896263 
L 275.796719 175.221385 
L 277.297705 174.360942 
L 278.798691 173.709357 
L 280.299678 175.86567 
L 281.800664 176.892263 
L 283.30165 176.910783 
L 284.802636 177.306603 
L 286.303623 178.004394 
L 287.804609 179.566945 
L 290.806581 181.798092 
L 292.307568 183.664553 
L 293.808554 184.751139 
L 295.30954 184.870897 
L 296.810526 185.781699 
L 301.313485 185.853062 
L 307.31743 185.920122 
L 311.820389 186.008392 
L 316.323347 186.055978 
L 319.32532 186.006465 
L 322.327292 186.027326 
L 322.327292 186.027326 
" style="fill:none;stroke:#ff756d;stroke-linecap:square;stroke-width:1.5;"/>
   </g>
   <g id="patch_3">
    <path d="M 54.40125 195.72 
L 54.40125 66.12 
" style="fill:none;stroke:#000000;stroke-linecap:square;stroke-linejoin:miter;stroke-width:0.8;"/>
   </g>
   <g id="patch_4">
    <path d="M 335.085675 195.72 
L 335.085675 66.12 
" style="fill:none;stroke:#000000;stroke-linecap:square;stroke-linejoin:miter;stroke-width:0.8;"/>
   </g>
   <g id="patch_5">
    <path d="M 54.40125 195.72 
L 335.085675 195.72 
" style="fill:none;stroke:#000000;stroke-linecap:square;stroke-linejoin:miter;stroke-width:0.8;"/>
   </g>
   <g id="patch_6">
    <path d="M 54.40125 66.12 
L 335.085675 66.12 
" style="fill:none;stroke:#000000;stroke-linecap:square;stroke-linejoin:miter;stroke-width:0.8;"/>
   </g>
   <g id="text_12">
    <!-- AT5TE20395 -->
    <g transform="translate(144.523463 60.12)scale(0.16 -0.16)">
     <defs>
      <path d="M 2188 4044 
L 1331 1722 
L 3047 1722 
L 2188 4044 
z
M 1831 4666 
L 2547 4666 
L 4325 0 
L 3669 0 
L 3244 1197 
L 1141 1197 
L 716 0 
L 50 0 
L 1831 4666 
z
" id="DejaVuSans-41" transform="scale(0.015625)"/>
      <path d="M -19 4666 
L 3928 4666 
L 3928 4134 
L 2272 4134 
L 2272 0 
L 1638 0 
L 1638 4134 
L -19 4134 
L -19 4666 
z
" id="DejaVuSans-54" transform="scale(0.015625)"/>
      <path d="M 691 4666 
L 3169 4666 
L 3169 4134 
L 1269 4134 
L 1269 2991 
Q 1406 3038 1543 3061 
Q 1681 3084 1819 3084 
Q 2600 3084 3056 2656 
Q 3513 2228 3513 1497 
Q 3513 744 3044 326 
Q 2575 -91 1722 -91 
Q 1428 -91 1123 -41 
Q 819 9 494 109 
L 494 744 
Q 775 591 1075 516 
Q 1375 441 1709 441 
Q 2250 441 2565 725 
Q 2881 1009 2881 1497 
Q 2881 1984 2565 2268 
Q 2250 2553 1709 2553 
Q 1456 2553 1204 2497 
Q 953 2441 691 2322 
L 691 4666 
z
" id="DejaVuSans-35" transform="scale(0.015625)"/>
      <path d="M 628 4666 
L 3578 4666 
L 3578 4134 
L 1259 4134 
L 1259 2753 
L 3481 2753 
L 3481 2222 
L 1259 2222 
L 1259 531 
L 3634 531 
L 3634 0 
L 628 0 
L 628 4666 
z
" id="DejaVuSans-45" transform="scale(0.015625)"/>
      <path d="M 2597 2516 
Q 3050 2419 3304 2112 
Q 3559 1806 3559 1356 
Q 3559 666 3084 287 
Q 2609 -91 1734 -91 
Q 1441 -91 1130 -33 
Q 819 25 488 141 
L 488 750 
Q 750 597 1062 519 
Q 1375 441 1716 441 
Q 2309 441 2620 675 
Q 2931 909 2931 1356 
Q 2931 1769 2642 2001 
Q 2353 2234 1838 2234 
L 1294 2234 
L 1294 2753 
L 1863 2753 
Q 2328 2753 2575 2939 
Q 2822 3125 2822 3475 
Q 2822 3834 2567 4026 
Q 2313 4219 1838 4219 
Q 1578 4219 1281 4162 
Q 984 4106 628 3988 
L 628 4550 
Q 988 4650 1302 4700 
Q 1616 4750 1894 4750 
Q 2613 4750 3031 4423 
Q 3450 4097 3450 3541 
Q 3450 3153 3228 2886 
Q 3006 2619 2597 2516 
z
" id="DejaVuSans-33" transform="scale(0.015625)"/>
      <path d="M 703 97 
L 703 672 
Q 941 559 1184 500 
Q 1428 441 1663 441 
Q 2288 441 2617 861 
Q 2947 1281 2994 2138 
Q 2813 1869 2534 1725 
Q 2256 1581 1919 1581 
Q 1219 1581 811 2004 
Q 403 2428 403 3163 
Q 403 3881 828 4315 
Q 1253 4750 1959 4750 
Q 2769 4750 3195 4129 
Q 3622 3509 3622 2328 
Q 3622 1225 3098 567 
Q 2575 -91 1691 -91 
Q 1453 -91 1209 -44 
Q 966 3 703 97 
z
M 1959 2075 
Q 2384 2075 2632 2365 
Q 2881 2656 2881 3163 
Q 2881 3666 2632 3958 
Q 2384 4250 1959 4250 
Q 1534 4250 1286 3958 
Q 1038 3666 1038 3163 
Q 1038 2656 1286 2365 
Q 1534 2075 1959 2075 
z
" id="DejaVuSans-39" transform="scale(0.015625)"/>
     </defs>
     <use xlink:href="#DejaVuSans-41"/>
     <use x="60.658203" xlink:href="#DejaVuSans-54"/>
     <use x="121.742188" xlink:href="#DejaVuSans-35"/>
     <use x="185.365234" xlink:href="#DejaVuSans-54"/>
     <use x="246.449219" xlink:href="#DejaVuSans-45"/>
     <use x="309.632812" xlink:href="#DejaVuSans-32"/>
     <use x="373.255859" xlink:href="#DejaVuSans-30"/>
     <use x="436.878906" xlink:href="#DejaVuSans-33"/>
     <use x="500.501953" xlink:href="#DejaVuSans-39"/>
     <use x="564.125" xlink:href="#DejaVuSans-35"/>
    </g>
   </g>
  </g>
  <g id="text_13">
   <!-- Metaplots of EVDs with Standard Deviation -->
   <g transform="translate(7.2 19.3575)scale(0.16 -0.16)">
    <defs>
     <path d="M 1159 525 
L 1159 -1331 
L 581 -1331 
L 581 3500 
L 1159 3500 
L 1159 2969 
Q 1341 3281 1617 3432 
Q 1894 3584 2278 3584 
Q 2916 3584 3314 3078 
Q 3713 2572 3713 1747 
Q 3713 922 3314 415 
Q 2916 -91 2278 -91 
Q 1894 -91 1617 61 
Q 1341 213 1159 525 
z
M 3116 1747 
Q 3116 2381 2855 2742 
Q 2594 3103 2138 3103 
Q 1681 3103 1420 2742 
Q 1159 2381 1159 1747 
Q 1159 1113 1420 752 
Q 1681 391 2138 391 
Q 2594 391 2855 752 
Q 3116 1113 3116 1747 
z
" id="DejaVuSans-70" transform="scale(0.015625)"/>
     <path d="M 2375 4863 
L 2375 4384 
L 1825 4384 
Q 1516 4384 1395 4259 
Q 1275 4134 1275 3809 
L 1275 3500 
L 2222 3500 
L 2222 3053 
L 1275 3053 
L 1275 0 
L 697 0 
L 697 3053 
L 147 3053 
L 147 3500 
L 697 3500 
L 697 3744 
Q 697 4328 969 4595 
Q 1241 4863 1831 4863 
L 2375 4863 
z
" id="DejaVuSans-66" transform="scale(0.015625)"/>
     <path d="M 1831 0 
L 50 4666 
L 709 4666 
L 2188 738 
L 3669 4666 
L 4325 4666 
L 2547 0 
L 1831 0 
z
" id="DejaVuSans-56" transform="scale(0.015625)"/>
     <path d="M 1259 4147 
L 1259 519 
L 2022 519 
Q 2988 519 3436 956 
Q 3884 1394 3884 2338 
Q 3884 3275 3436 3711 
Q 2988 4147 2022 4147 
L 1259 4147 
z
M 628 4666 
L 1925 4666 
Q 3281 4666 3915 4102 
Q 4550 3538 4550 2338 
Q 4550 1131 3912 565 
Q 3275 0 1925 0 
L 628 0 
L 628 4666 
z
" id="DejaVuSans-44" transform="scale(0.015625)"/>
     <path d="M 269 3500 
L 844 3500 
L 1563 769 
L 2278 3500 
L 2956 3500 
L 3675 769 
L 4391 3500 
L 4966 3500 
L 4050 0 
L 3372 0 
L 2619 2869 
L 1863 0 
L 1184 0 
L 269 3500 
z
" id="DejaVuSans-77" transform="scale(0.015625)"/>
     <path d="M 3425 4513 
L 3425 3897 
Q 3066 4069 2747 4153 
Q 2428 4238 2131 4238 
Q 1616 4238 1336 4038 
Q 1056 3838 1056 3469 
Q 1056 3159 1242 3001 
Q 1428 2844 1947 2747 
L 2328 2669 
Q 3034 2534 3370 2195 
Q 3706 1856 3706 1288 
Q 3706 609 3251 259 
Q 2797 -91 1919 -91 
Q 1588 -91 1214 -16 
Q 841 59 441 206 
L 441 856 
Q 825 641 1194 531 
Q 1563 422 1919 422 
Q 2459 422 2753 634 
Q 3047 847 3047 1241 
Q 3047 1584 2836 1778 
Q 2625 1972 2144 2069 
L 1759 2144 
Q 1053 2284 737 2584 
Q 422 2884 422 3419 
Q 422 4038 858 4394 
Q 1294 4750 2059 4750 
Q 2388 4750 2728 4690 
Q 3069 4631 3425 4513 
z
" id="DejaVuSans-53" transform="scale(0.015625)"/>
    </defs>
    <use xlink:href="#DejaVuSans-4d"/>
    <use x="86.279297" xlink:href="#DejaVuSans-65"/>
    <use x="147.802734" xlink:href="#DejaVuSans-74"/>
    <use x="187.011719" xlink:href="#DejaVuSans-61"/>
    <use x="248.291016" xlink:href="#DejaVuSans-70"/>
    <use x="311.767578" xlink:href="#DejaVuSans-6c"/>
    <use x="339.550781" xlink:href="#DejaVuSans-6f"/>
    <use x="400.732422" xlink:href="#DejaVuSans-74"/>
    <use x="439.941406" xlink:href="#DejaVuSans-73"/>
    <use x="492.041016" xlink:href="#DejaVuSans-20"/>
    <use x="523.828125" xlink:href="#DejaVuSans-6f"/>
    <use x="585.009766" xlink:href="#DejaVuSans-66"/>
    <use x="620.214844" xlink:href="#DejaVuSans-20"/>
    <use x="652.001953" xlink:href="#DejaVuSans-45"/>
    <use x="715.185547" xlink:href="#DejaVuSans-56"/>
    <use x="783.59375" xlink:href="#DejaVuSans-44"/>
    <use x="860.595703" xlink:href="#DejaVuSans-73"/>
    <use x="912.695312" xlink:href="#DejaVuSans-20"/>
    <use x="944.482422" xlink:href="#DejaVuSans-77"/>
    <use x="1026.269531" xlink:href="#DejaVuSans-69"/>
    <use x="1054.052734" xlink:href="#DejaVuSans-74"/>
    <use x="1093.261719" xlink:href="#DejaVuSans-68"/>
    <use x="1156.640625" xlink:href="#DejaVuSans-20"/>
    <use x="1188.427734" xlink:href="#DejaVuSans-53"/>
    <use x="1251.904297" xlink:href="#DejaVuSans-74"/>
    <use x="1291.113281" xlink:href="#DejaVuSans-61"/>
    <use x="1352.392578" xlink:href="#DejaVuSans-6e"/>
    <use x="1415.771484" xlink:href="#DejaVuSans-64"/>
    <use x="1479.248047" xlink:href="#DejaVuSans-61"/>
    <use x="1540.527344" xlink:href="#DejaVuSans-72"/>
    <use x="1579.890625" xlink:href="#DejaVuSans-64"/>
    <use x="1643.367188" xlink:href="#DejaVuSans-20"/>
    <use x="1675.154297" xlink:href="#DejaVuSans-44"/>
    <use x="1752.15625" xlink:href="#DejaVuSans-65"/>
    <use x="1813.679688" xlink:href="#DejaVuSans-76"/>
    <use x="1872.859375" xlink:href="#DejaVuSans-69"/>
    <use x="1900.642578" xlink:href="#DejaVuSans-61"/>
    <use x="1961.921875" xlink:href="#DejaVuSans-74"/>
    <use x="2001.130859" xlink:href="#DejaVuSans-69"/>
    <use x="2028.914062" xlink:href="#DejaVuSans-6f"/>
    <use x="2090.095703" xlink:href="#DejaVuSans-6e"/>
   </g>
  </g>
  <g id="legend_1">
   <g id="patch_7">
    <path d="M 366.47625 63.554375 
L 444.765312 63.554375 
Q 446.765312 63.554375 446.765312 61.554375 
L 446.765312 18.52 
Q 446.765312 16.52 444.765312 16.52 
L 366.47625 16.52 
Q 364.47625 16.52 364.47625 18.52 
L 364.47625 61.554375 
Q 364.47625 63.554375 366.47625 63.554375 
z
" style="fill:#ffffff;opacity:0.8;stroke:#cccccc;stroke-linejoin:miter;"/>
   </g>
   <g id="line2d_14">
    <path d="M 368.47625 24.618437 
L 388.47625 24.618437 
" style="fill:none;stroke:#01c19e;stroke-linecap:square;stroke-width:1.5;"/>
   </g>
   <g id="line2d_15"/>
   <g id="text_14">
    <!-- EVD CG -->
    <g transform="translate(396.47625 28.118437)scale(0.1 -0.1)">
     <defs>
      <path d="M 4122 4306 
L 4122 3641 
Q 3803 3938 3442 4084 
Q 3081 4231 2675 4231 
Q 1875 4231 1450 3742 
Q 1025 3253 1025 2328 
Q 1025 1406 1450 917 
Q 1875 428 2675 428 
Q 3081 428 3442 575 
Q 3803 722 4122 1019 
L 4122 359 
Q 3791 134 3420 21 
Q 3050 -91 2638 -91 
Q 1578 -91 968 557 
Q 359 1206 359 2328 
Q 359 3453 968 4101 
Q 1578 4750 2638 4750 
Q 3056 4750 3426 4639 
Q 3797 4528 4122 4306 
z
" id="DejaVuSans-43" transform="scale(0.015625)"/>
      <path d="M 3809 666 
L 3809 1919 
L 2778 1919 
L 2778 2438 
L 4434 2438 
L 4434 434 
Q 4069 175 3628 42 
Q 3188 -91 2688 -91 
Q 1594 -91 976 548 
Q 359 1188 359 2328 
Q 359 3472 976 4111 
Q 1594 4750 2688 4750 
Q 3144 4750 3555 4637 
Q 3966 4525 4313 4306 
L 4313 3634 
Q 3963 3931 3569 4081 
Q 3175 4231 2741 4231 
Q 1884 4231 1454 3753 
Q 1025 3275 1025 2328 
Q 1025 1384 1454 906 
Q 1884 428 2741 428 
Q 3075 428 3337 486 
Q 3600 544 3809 666 
z
" id="DejaVuSans-47" transform="scale(0.015625)"/>
     </defs>
     <use xlink:href="#DejaVuSans-45"/>
     <use x="63.183594" xlink:href="#DejaVuSans-56"/>
     <use x="131.591797" xlink:href="#DejaVuSans-44"/>
     <use x="208.59375" xlink:href="#DejaVuSans-20"/>
     <use x="240.380859" xlink:href="#DejaVuSans-43"/>
     <use x="310.205078" xlink:href="#DejaVuSans-47"/>
    </g>
   </g>
   <g id="line2d_16">
    <path d="M 368.47625 39.296562 
L 388.47625 39.296562 
" style="fill:none;stroke:#6b8ae0;stroke-linecap:square;stroke-width:1.5;"/>
   </g>
   <g id="line2d_17"/>
   <g id="text_15">
    <!-- EVD CHG -->
    <g transform="translate(396.47625 42.796562)scale(0.1 -0.1)">
     <defs>
      <path d="M 628 4666 
L 1259 4666 
L 1259 2753 
L 3553 2753 
L 3553 4666 
L 4184 4666 
L 4184 0 
L 3553 0 
L 3553 2222 
L 1259 2222 
L 1259 0 
L 628 0 
L 628 4666 
z
" id="DejaVuSans-48" transform="scale(0.015625)"/>
     </defs>
     <use xlink:href="#DejaVuSans-45"/>
     <use x="63.183594" xlink:href="#DejaVuSans-56"/>
     <use x="131.591797" xlink:href="#DejaVuSans-44"/>
     <use x="208.59375" xlink:href="#DejaVuSans-20"/>
     <use x="240.380859" xlink:href="#DejaVuSans-43"/>
     <use x="310.205078" xlink:href="#DejaVuSans-48"/>
     <use x="385.400391" xlink:href="#DejaVuSans-47"/>
    </g>
   </g>
   <g id="line2d_18">
    <path d="M 368.47625 53.974687 
L 388.47625 53.974687 
" style="fill:none;stroke:#ff756d;stroke-linecap:square;stroke-width:1.5;"/>
   </g>
   <g id="line2d_19"/>
   <g id="text_16">
    <!-- EVD CHH -->
    <g transform="translate(396.47625 57.474687)scale(0.1 -0.1)">
     <use xlink:href="#DejaVuSans-45"/>
     <use x="63.183594" xlink:href="#DejaVuSans-56"/>
     <use x="131.591797" xlink:href="#DejaVuSans-44"/>
     <use x="208.59375" xlink:href="#DejaVuSans-20"/>
     <use x="240.380859" xlink:href="#DejaVuSans-43"/>
     <use x="310.205078" xlink:href="#DejaVuSans-48"/>
     <use x="385.400391" xlink:href="#DejaVuSans-48"/>
    </g>
   </g>
  </g>
 </g>
 <defs>
  <clipPath id="p37b8253ddd">
   <rect height="129.6" width="280.684425" x="54.40125" y="66.12"/>
  </clipPath>
 </defs>
</svg>
